<svg id="Layer_1" data-name="Layer 1" xmlns="http://www.w3.org/2000/svg" xmlns:xlink="http://www.w3.org/1999/xlink" viewBox="0 0 256 256"><defs><style>.cls-1{fill:#212121;}.cls-2{fill:#333;}.cls-3{fill:url(#radial-gradient);}.cls-4{fill:url(#radial-gradient-2);}.cls-5{fill:url(#radial-gradient-3);}.cls-6{fill:url(#radial-gradient-4);}.cls-7{fill:url(#radial-gradient-5);}.cls-8{fill:url(#radial-gradient-6);}.cls-9{fill:url(#radial-gradient-7);}.cls-10{fill:url(#radial-gradient-8);}.cls-11{fill:url(#radial-gradient-9);}.cls-12{fill:url(#radial-gradient-10);}.cls-13{fill:url(#radial-gradient-11);}.cls-14{fill:url(#radial-gradient-12);}.cls-15{fill:url(#radial-gradient-13);}.cls-16{fill:url(#radial-gradient-14);}.cls-17{fill:url(#radial-gradient-15);}.cls-18{fill:url(#radial-gradient-16);}.cls-19{fill:url(#radial-gradient-17);}.cls-20{fill:url(#radial-gradient-18);}.cls-21{fill:url(#radial-gradient-19);}.cls-22{fill:url(#radial-gradient-20);}.cls-23{fill:url(#radial-gradient-21);}.cls-24{fill:url(#radial-gradient-22);}</style><radialGradient id="radial-gradient" cx="127.34" cy="230.6" r="16" gradientUnits="userSpaceOnUse"><stop offset="0" stop-color="#17fefe"/><stop offset="1" stop-color="#1687fc"/></radialGradient><radialGradient id="radial-gradient-2" cx="161.78" cy="224.77" r="16" xlink:href="#radial-gradient"/><radialGradient id="radial-gradient-3" cx="92.97" cy="224.35" r="10.82" gradientTransform="translate(-44.51 -107.39) scale(1.48 1.48)" xlink:href="#radial-gradient"/><radialGradient id="radial-gradient-4" cx="192.14" cy="207.52" r="16.01" xlink:href="#radial-gradient"/><radialGradient id="radial-gradient-5" cx="62.86" cy="206.68" r="16" xlink:href="#radial-gradient"/><radialGradient id="radial-gradient-6" cx="214.76" cy="180.9" r="15.98" xlink:href="#radial-gradient"/><radialGradient id="radial-gradient-7" cx="40.55" cy="179.81" r="16" xlink:href="#radial-gradient"/><radialGradient id="radial-gradient-8" cx="226.96" cy="148.17" r="16" xlink:href="#radial-gradient"/><radialGradient id="radial-gradient-9" cx="28.81" cy="146.93" r="16.01" xlink:href="#radial-gradient"/><radialGradient id="radial-gradient-10" cx="141.22" cy="96.29" r="11.34" gradientTransform="translate(-61.61 -14.1) scale(1.48 1.48)" gradientUnits="userSpaceOnUse"><stop offset="0" stop-color="#fff"/><stop offset="1" stop-color="#fff1c7"/></radialGradient><radialGradient id="radial-gradient-11" cx="114.86" cy="96.29" r="11.34" xlink:href="#radial-gradient-10"/><radialGradient id="radial-gradient-12" cx="88.5" cy="96.29" r="11.34" xlink:href="#radial-gradient-10"/><radialGradient id="radial-gradient-13" cx="167.57" cy="96.29" r="11.34" xlink:href="#radial-gradient-10"/><radialGradient id="radial-gradient-14" cx="227.16" cy="113.06" r="16.12" xlink:href="#radial-gradient"/><radialGradient id="radial-gradient-15" cx="28.99" cy="112.01" r="15.99" xlink:href="#radial-gradient"/><radialGradient id="radial-gradient-16" cx="215.33" cy="80" r="15.99" xlink:href="#radial-gradient"/><radialGradient id="radial-gradient-17" cx="41.12" cy="79.26" r="10.81" gradientTransform="translate(-19.72 -38.02) scale(1.48 1.48)" xlink:href="#radial-gradient"/><radialGradient id="radial-gradient-18" cx="192.97" cy="53.18" r="15.99" xlink:href="#radial-gradient"/><radialGradient id="radial-gradient-19" cx="63.7" cy="52.59" r="16" xlink:href="#radial-gradient"/><radialGradient id="radial-gradient-20" cx="162.8" cy="35.58" r="16" xlink:href="#radial-gradient"/><radialGradient id="radial-gradient-21" cx="94.01" cy="35.28" r="15.98" xlink:href="#radial-gradient"/><radialGradient id="radial-gradient-22" cx="128.44" cy="29.39" r="10.81" gradientTransform="translate(-61.61 -14.1) scale(1.48 1.48)" xlink:href="#radial-gradient"/></defs><title>blue-stg-256</title><circle class="cls-1" cx="128" cy="128" r="126.03" transform="translate(-53.02 128) rotate(-45)"/><path class="cls-2" d="M128,256A128,128,0,1,1,256,128,128.14,128.14,0,0,1,128,256ZM128,3.94A124.06,124.06,0,1,0,252.06,128,124.2,124.2,0,0,0,128,3.94Z"/><path d="M128,256A128,128,0,1,1,256,128,128.14,128.14,0,0,1,128,256ZM128,2A126,126,0,1,0,254,128,126.17,126.17,0,0,0,128,2Z"/><path class="cls-3" d="M127.26,246.6a16,16,0,0,1-15.92-16.08h0a16.08,16.08,0,0,1,16.07-15.92h0a16,16,0,0,1,15.93,16.14h0a16,16,0,0,1-14.61,15.79h0A11.5,11.5,0,0,1,127.26,246.6Z"/><path class="cls-4" d="M146.69,230.13a16.09,16.09,0,0,1,9.71-20.44h0a16,16,0,0,1,20.44,9.71h0a16,16,0,0,1-9.71,20.44h0a14.19,14.19,0,0,1-4,.86h0A16,16,0,0,1,146.69,230.13Z"/><path class="cls-5" d="M87.41,239.3A16,16,0,0,1,78,218.75h0a16,16,0,0,1,20.62-9.38h0A16,16,0,0,1,108,229.92h0a15.93,15.93,0,0,1-13.61,10.37h0A15.62,15.62,0,0,1,87.41,239.3Z"/><path class="cls-6" d="M179.83,217.73a16,16,0,0,1,2.08-22.55h0a16,16,0,0,1,22.56,2.14h0a16,16,0,0,1-2.09,22.49h0a16,16,0,0,1-8.87,3.66h0A15.88,15.88,0,0,1,179.83,217.73Z"/><path class="cls-7" d="M52.5,218.89a16,16,0,0,1-1.85-22.57h0a16.05,16.05,0,0,1,22.58-1.85h0A16,16,0,0,1,75,217.05h0a15.81,15.81,0,0,1-10.75,5.57h0A16.05,16.05,0,0,1,52.5,218.89Z"/><path class="cls-8" d="M206.65,194.68A16,16,0,0,1,201,172.85h0a16,16,0,0,1,21.9-5.71h0A15.92,15.92,0,0,1,228.55,189h0a15.93,15.93,0,0,1-12.41,7.83h0A16.17,16.17,0,0,1,206.65,194.68Z"/><path class="cls-9" d="M26.66,187.77a16,16,0,0,1,6-21.85h0a15.91,15.91,0,0,1,21.78,6h0a15.94,15.94,0,0,1-5.93,21.77h0a15.65,15.65,0,0,1-6.57,2.05h0A16,16,0,0,1,26.66,187.77Z"/><path class="cls-10" d="M224.09,163.91a16,16,0,0,1-12.87-18.6h0a16,16,0,0,1,18.66-12.87h0a16,16,0,0,1,12.81,18.67h0a16,16,0,0,1-14.34,13h0A16.11,16.11,0,0,1,224.09,163.91Z"/><path class="cls-11" d="M13,149.6a16,16,0,0,1,13.11-18.44h0a16,16,0,0,1,18.5,13h-.06a16,16,0,0,1-13,18.5h0c-.44,0-.89.14-1.33.18h0A16,16,0,0,1,13,149.6Z"/><path class="cls-12" d="M147.26,145.17h0a16.79,16.79,0,0,1-16.7-16.86h0a16.71,16.71,0,0,1,16.87-16.71h-.07a16.78,16.78,0,0,1,16.77,16.79h0a16.83,16.83,0,0,1-15.25,16.7h0C148.34,145.14,147.8,145.12,147.26,145.17Z"/><path class="cls-13" d="M108.26,145.17h0a16.79,16.79,0,0,1-16.7-16.86h0a16.71,16.71,0,0,1,16.87-16.71h-.07a16.78,16.78,0,0,1,16.77,16.79h0a16.83,16.83,0,0,1-15.25,16.7h0C109.34,145.14,108.8,145.12,108.26,145.17Z"/><path class="cls-14" d="M69.26,145.17h0a16.79,16.79,0,0,1-16.7-16.86h0A16.71,16.71,0,0,1,69.43,111.6h-.07A16.78,16.78,0,0,1,86.13,128.4h0a16.83,16.83,0,0,1-15.25,16.7h0C70.34,145.14,69.8,145.12,69.26,145.17Z"/><path class="cls-15" d="M186.26,145.17h0a16.79,16.79,0,0,1-16.7-16.86h0a16.71,16.71,0,0,1,16.87-16.71h-.07a16.78,16.78,0,0,1,16.77,16.79h0a16.83,16.83,0,0,1-15.25,16.7h0C187.34,145.14,186.8,145.12,186.26,145.17Z"/><path class="cls-16" d="M211.5,116a.71.71,0,0,0-.1-.37h0v-.13h0a16,16,0,0,1,13-18.44h0a16,16,0,0,1,18.5,13h0l0,.26h0l0,.38h0a16,16,0,0,1-13.06,18.44h0l-1.27.11h0A15.93,15.93,0,0,1,211.5,116Z"/><path class="cls-17" d="M26.1,127.73a16,16,0,0,1-12.86-18.64h0A15.94,15.94,0,0,1,31.82,96.3h0a16,16,0,0,1,12.92,18.57h0a16.12,16.12,0,0,1-14.39,13.07h0A16,16,0,0,1,26.1,127.73Z"/><path class="cls-18" d="M201.46,88a16,16,0,0,1,5.93-21.85h0a16.06,16.06,0,0,1,21.85,6h0a16,16,0,0,1-5.93,21.79h0a15.92,15.92,0,0,1-6.56,2.05h0A15.88,15.88,0,0,1,201.46,88Z"/><path class="cls-19" d="M33.08,93.07a16,16,0,0,1-5.77-21.91h0a16,16,0,0,1,21.86-5.7h0a15.93,15.93,0,0,1,5.76,21.85h0A16,16,0,0,1,42.52,95.2h0A15.76,15.76,0,0,1,33.08,93.07Z"/><path class="cls-20" d="M182.65,65.43a16,16,0,0,1-1.91-22.55h0A16,16,0,0,1,203.3,41h0a16,16,0,0,1,1.9,22.56h0a16.14,16.14,0,0,1-10.87,5.57h0A15.89,15.89,0,0,1,182.65,65.43Z"/><path class="cls-21" d="M51.37,62.85a16.08,16.08,0,0,1,2.07-22.54h0a16,16,0,0,1,22.54,2h0a15.94,15.94,0,0,1-2.07,22.54h0a15.51,15.51,0,0,1-8.81,3.67h0A16.06,16.06,0,0,1,51.37,62.85Z"/><path class="cls-22" d="M157.24,50.59A16,16,0,0,1,147.8,30h0a16,16,0,0,1,20.56-9.44h0a16,16,0,0,1,9.44,20.57h0a16,16,0,0,1-13.61,10.37h0A16.46,16.46,0,0,1,157.24,50.59Z"/><path class="cls-23" d="M79,40.68a16,16,0,0,1,9.7-20.42h0a15.94,15.94,0,0,1,20.42,9.64h0a16,16,0,0,1-9.7,20.42h0a14.55,14.55,0,0,1-4,.86h0A16,16,0,0,1,79,40.68Z"/><path class="cls-24" d="M128.36,45.39h0a16,16,0,0,1-15.92-16.08h0a15.92,15.92,0,0,1,16.08-15.92h-.07a16,16,0,0,1,16,16h0A16,16,0,0,1,129.9,45.32h0C129.39,45.36,128.87,45.34,128.36,45.39Z"/></svg>