<svg id="Layer_1" data-name="Layer 1" xmlns="http://www.w3.org/2000/svg" xmlns:xlink="http://www.w3.org/1999/xlink" viewBox="0 0 256 256"><defs><style>.cls-1{fill:#212121;}.cls-2{fill:#333;}.cls-3{fill:url(#radial-gradient);}.cls-4{fill:url(#radial-gradient-2);}.cls-5{fill:url(#radial-gradient-3);}.cls-6{fill:url(#radial-gradient-4);}.cls-7{fill:url(#radial-gradient-5);}.cls-8{fill:url(#radial-gradient-6);}.cls-9{fill:url(#radial-gradient-7);}.cls-10{fill:url(#radial-gradient-8);}.cls-11{fill:url(#radial-gradient-9);}</style><radialGradient id="radial-gradient" cx="227.16" cy="113.06" r="16.12" gradientUnits="userSpaceOnUse"><stop offset="0" stop-color="#17fefe"/><stop offset="1" stop-color="#1687fc"/></radialGradient><radialGradient id="radial-gradient-2" cx="28.99" cy="112.01" r="15.99" xlink:href="#radial-gradient"/><radialGradient id="radial-gradient-3" cx="215.33" cy="80" r="15.99" xlink:href="#radial-gradient"/><radialGradient id="radial-gradient-4" cx="41.12" cy="79.26" r="10.81" gradientTransform="translate(-19.72 -38.02) scale(1.48 1.48)" xlink:href="#radial-gradient"/><radialGradient id="radial-gradient-5" cx="192.97" cy="53.18" r="15.99" xlink:href="#radial-gradient"/><radialGradient id="radial-gradient-6" cx="63.7" cy="52.59" r="16" xlink:href="#radial-gradient"/><radialGradient id="radial-gradient-7" cx="162.8" cy="35.58" r="16" xlink:href="#radial-gradient"/><radialGradient id="radial-gradient-8" cx="94.01" cy="35.28" r="15.98" xlink:href="#radial-gradient"/><radialGradient id="radial-gradient-9" cx="128.44" cy="29.39" r="10.81" gradientTransform="translate(-61.61 -14.1) scale(1.48 1.48)" xlink:href="#radial-gradient"/></defs><title>blue-pre-256</title><circle class="cls-1" cx="128" cy="128" r="126.03" transform="translate(-53.02 128) rotate(-45)"/><path class="cls-2" d="M128,256A128,128,0,1,1,256,128,128.14,128.14,0,0,1,128,256ZM128,3.94A124.06,124.06,0,1,0,252.06,128,124.2,124.2,0,0,0,128,3.94Z"/><path d="M128,256A128,128,0,1,1,256,128,128.14,128.14,0,0,1,128,256ZM128,2A126,126,0,1,0,254,128,126.17,126.17,0,0,0,128,2Z"/><path class="cls-3" d="M211.5,116a.71.71,0,0,0-.1-.37h0v-.13h0a16,16,0,0,1,13-18.44h0a16,16,0,0,1,18.5,13h0l0,.26h0l0,.38h0a16,16,0,0,1-13.06,18.44h0l-1.27.11h0A15.93,15.93,0,0,1,211.5,116Z"/><path class="cls-4" d="M26.1,127.73a16,16,0,0,1-12.86-18.64h0A15.94,15.94,0,0,1,31.82,96.3h0a16,16,0,0,1,12.92,18.57h0a16.12,16.12,0,0,1-14.39,13.07h0A16,16,0,0,1,26.1,127.73Z"/><path class="cls-5" d="M201.46,88a16,16,0,0,1,5.93-21.85h0a16.06,16.06,0,0,1,21.85,6h0a16,16,0,0,1-5.93,21.79h0a15.92,15.92,0,0,1-6.56,2.05h0A15.88,15.88,0,0,1,201.46,88Z"/><path class="cls-6" d="M33.08,93.07a16,16,0,0,1-5.77-21.91h0a16,16,0,0,1,21.86-5.7h0a15.93,15.93,0,0,1,5.76,21.85h0A16,16,0,0,1,42.52,95.2h0A15.76,15.76,0,0,1,33.08,93.07Z"/><path class="cls-7" d="M182.65,65.43a16,16,0,0,1-1.91-22.55h0A16,16,0,0,1,203.3,41h0a16,16,0,0,1,1.9,22.56h0a16.14,16.14,0,0,1-10.87,5.57h0A15.89,15.89,0,0,1,182.65,65.43Z"/><path class="cls-8" d="M51.37,62.85a16.08,16.08,0,0,1,2.07-22.54h0a16,16,0,0,1,22.54,2h0a15.94,15.94,0,0,1-2.07,22.54h0a15.51,15.51,0,0,1-8.81,3.67h0A16.06,16.06,0,0,1,51.37,62.85Z"/><path class="cls-9" d="M157.24,50.59A16,16,0,0,1,147.8,30h0a16,16,0,0,1,20.56-9.44h0a16,16,0,0,1,9.44,20.57h0a16,16,0,0,1-13.61,10.37h0A16.46,16.46,0,0,1,157.24,50.59Z"/><path class="cls-10" d="M79,40.68a16,16,0,0,1,9.7-20.42h0a15.94,15.94,0,0,1,20.42,9.64h0a16,16,0,0,1-9.7,20.42h0a14.55,14.55,0,0,1-4,.86h0A16,16,0,0,1,79,40.68Z"/><path class="cls-11" d="M128.36,45.39h0a16,16,0,0,1-15.92-16.08h0a15.92,15.92,0,0,1,16.08-15.92h-.07a16,16,0,0,1,16,16h0A16,16,0,0,1,129.9,45.32h0C129.39,45.36,128.87,45.34,128.36,45.39Z"/></svg>