<svg id="Layer_1" data-name="Layer 1" xmlns="http://www.w3.org/2000/svg" xmlns:xlink="http://www.w3.org/1999/xlink" viewBox="0 0 256 256"><defs><style>.cls-1{fill:#212121;}.cls-2{fill:#333;}.cls-3{fill:#444;}.cls-4{fill:url(#radial-gradient);}.cls-5{fill:red;}</style><radialGradient id="radial-gradient" cx="128" cy="128" r="85.25" gradientTransform="translate(128 -141.69) rotate(45) scale(1.49)" gradientUnits="userSpaceOnUse"><stop offset="0" stop-color="red"/><stop offset="1" stop-color="#900000"/></radialGradient></defs><title>light-red</title><circle class="cls-1" cx="128" cy="128" r="126.03" transform="translate(-53.02 128) rotate(-45)"/><path class="cls-2" d="M128,256A128,128,0,1,1,256,128,128.14,128.14,0,0,1,128,256ZM128,3.94A124.06,124.06,0,1,0,252.06,128,124.2,124.2,0,0,0,128,3.94Z"/><path class="cls-3" d="M128,163.27a5,5,0,0,1-4.94-4.92h0a4.93,4.93,0,0,1,4.92-4.93h0a4.91,4.91,0,0,1,4.94,4.91h0a5,5,0,0,1-4.92,4.94Zm-17.65-4.71a4.94,4.94,0,0,1-1.79-6.73h0a4.92,4.92,0,0,1,6.72-1.79h0a4.9,4.9,0,0,1,1.81,6.71h0a4.87,4.87,0,0,1-4.27,2.46h0A4.86,4.86,0,0,1,110.39,158.56Zm28.54-1.83a4.89,4.89,0,0,1,1.79-6.71h0a4.92,4.92,0,0,1,6.74,1.77h0a4.94,4.94,0,0,1-1.8,6.73h0a4.83,4.83,0,0,1-2.46.67h0A4.91,4.91,0,0,1,138.93,156.73Zm-41.43-11A4.92,4.92,0,0,1,99.27,139h0a4.94,4.94,0,0,1,6.73,1.79h0a4.93,4.93,0,0,1-1.79,6.74h0a4.84,4.84,0,0,1-2.46.67h0A4.9,4.9,0,0,1,97.5,145.68Zm54.33,1.74A4.91,4.91,0,0,1,150,140.7h0a4.93,4.93,0,0,1,6.73-1.81h0a4.94,4.94,0,0,1,1.79,6.73h0a4.91,4.91,0,0,1-4.27,2.47h0A4.83,4.83,0,0,1,151.83,147.42Zm-59.1-19.36a4.92,4.92,0,0,1,4.92-4.92h0a4.91,4.91,0,0,1,4.93,4.92h0A4.91,4.91,0,0,1,97.67,133h0A4.94,4.94,0,0,1,92.73,128.06Zm60.69-.06v-.06h0v-.06h0a4.92,4.92,0,0,1,4.89-4.94h0a4.94,4.94,0,0,1,5,4.9h0v.08h0V128h0a4.92,4.92,0,0,1-4.92,4.92h0A4.93,4.93,0,0,1,153.42,128ZM99.23,117.15a4.91,4.91,0,0,1-1.81-6.72h0a4.91,4.91,0,0,1,6.71-1.81h0a4.9,4.9,0,0,1,1.81,6.72h0a4.88,4.88,0,0,1-4.27,2.48h0A4.83,4.83,0,0,1,99.23,117.15Zm50.75-2a4.9,4.9,0,0,1,1.77-6.73h0a4.93,4.93,0,0,1,6.73,1.77h0a4.9,4.9,0,0,1-1.77,6.73h0a4.9,4.9,0,0,1-2.46.67h0A4.87,4.87,0,0,1,150,115.2Zm-41.48-11a4.92,4.92,0,0,1,1.78-6.73h0A4.93,4.93,0,0,1,117,99.29h0a4.91,4.91,0,0,1-1.77,6.71h0a4.73,4.73,0,0,1-2.48.69h0A4.9,4.9,0,0,1,108.5,104.23Zm32.12,1.69a4.91,4.91,0,0,1-1.81-6.71h0a4.91,4.91,0,0,1,6.72-1.81h0a4.9,4.9,0,0,1,1.81,6.71h0a4.92,4.92,0,0,1-4.25,2.48h0A4.83,4.83,0,0,1,140.62,105.92ZM123,97.67a4.92,4.92,0,0,1,4.9-4.94h0a4.93,4.93,0,0,1,5,4.9h0a4.93,4.93,0,0,1-4.91,5h0A4.93,4.93,0,0,1,123,97.67Z"/><path class="cls-3" d="M128,163.27a5,5,0,0,1-4.94-4.92h0a4.93,4.93,0,0,1,4.92-4.93h0a4.91,4.91,0,0,1,4.94,4.91h0a5,5,0,0,1-4.92,4.94Zm-17.65-4.71a4.94,4.94,0,0,1-1.79-6.73h0a4.92,4.92,0,0,1,6.72-1.79h0a4.9,4.9,0,0,1,1.81,6.71h0a4.87,4.87,0,0,1-4.27,2.46h0A4.86,4.86,0,0,1,110.39,158.56Zm28.54-1.83a4.89,4.89,0,0,1,1.79-6.71h0a4.92,4.92,0,0,1,6.74,1.77h0a4.94,4.94,0,0,1-1.8,6.73h0a4.83,4.83,0,0,1-2.46.67h0A4.91,4.91,0,0,1,138.93,156.73Zm-41.43-11A4.92,4.92,0,0,1,99.27,139h0a4.94,4.94,0,0,1,6.73,1.79h0a4.93,4.93,0,0,1-1.79,6.74h0a4.84,4.84,0,0,1-2.46.67h0A4.9,4.9,0,0,1,97.5,145.68Zm54.33,1.74A4.91,4.91,0,0,1,150,140.7h0a4.93,4.93,0,0,1,6.73-1.81h0a4.94,4.94,0,0,1,1.79,6.73h0a4.91,4.91,0,0,1-4.27,2.47h0A4.83,4.83,0,0,1,151.83,147.42Zm-59.1-19.36a4.92,4.92,0,0,1,4.92-4.92h0a4.91,4.91,0,0,1,4.93,4.92h0A4.91,4.91,0,0,1,97.67,133h0A4.94,4.94,0,0,1,92.73,128.06Zm60.69-.06v-.06h0v-.06h0a4.92,4.92,0,0,1,4.89-4.94h0a4.94,4.94,0,0,1,5,4.9h0v.08h0V128h0a4.92,4.92,0,0,1-4.92,4.92h0A4.93,4.93,0,0,1,153.42,128ZM99.23,117.15a4.91,4.91,0,0,1-1.81-6.72h0a4.91,4.91,0,0,1,6.71-1.81h0a4.9,4.9,0,0,1,1.81,6.72h0a4.88,4.88,0,0,1-4.27,2.48h0A4.83,4.83,0,0,1,99.23,117.15Zm50.75-2a4.9,4.9,0,0,1,1.77-6.73h0a4.93,4.93,0,0,1,6.73,1.77h0a4.9,4.9,0,0,1-1.77,6.73h0a4.9,4.9,0,0,1-2.46.67h0A4.87,4.87,0,0,1,150,115.2Zm-41.48-11a4.92,4.92,0,0,1,1.78-6.73h0A4.93,4.93,0,0,1,117,99.29h0a4.91,4.91,0,0,1-1.77,6.71h0a4.73,4.73,0,0,1-2.48.69h0A4.9,4.9,0,0,1,108.5,104.23Zm32.12,1.69a4.91,4.91,0,0,1-1.81-6.71h0a4.91,4.91,0,0,1,6.72-1.81h0a4.9,4.9,0,0,1,1.81,6.71h0a4.92,4.92,0,0,1-4.25,2.48h0A4.83,4.83,0,0,1,140.62,105.92ZM123,97.67a4.92,4.92,0,0,1,4.9-4.94h0a4.93,4.93,0,0,1,5,4.9h0a4.93,4.93,0,0,1-4.91,5h0A4.93,4.93,0,0,1,123,97.67Z"/><path class="cls-3" d="M118.67,144.31a4.91,4.91,0,0,1-1.82-6.72h0a4.92,4.92,0,0,1,6.72-1.83h0a4.92,4.92,0,0,1,1.81,6.71h0a4.88,4.88,0,0,1-4.27,2.49h0A5,5,0,0,1,118.67,144.31Zm12-1.84a4.92,4.92,0,0,1,1.79-6.73h0a4.89,4.89,0,0,1,6.71,1.77h0a4.92,4.92,0,0,1-1.77,6.74h0a5,5,0,0,1-2.48.67h0A4.92,4.92,0,0,1,130.7,142.47ZM109.21,128.1a4.91,4.91,0,0,1,4.89-4.94h0a4.93,4.93,0,0,1,5,4.9h0a4.92,4.92,0,0,1-4.9,4.94h0A4.93,4.93,0,0,1,109.21,128.1Zm27.73,0v-.2h0a4.92,4.92,0,0,1,4.86-5h0a4.94,4.94,0,0,1,5,4.86h0v0h0v.16h0V128h0a4.93,4.93,0,0,1-4.93,4.92h0A5,5,0,0,1,136.94,128.08Zm-20.2-9.53a4.94,4.94,0,0,1,1.73-6.76h0a4.91,4.91,0,0,1,6.73,1.76h0a4.89,4.89,0,0,1-1.73,6.73h0a4.81,4.81,0,0,1-2.5.69h0A4.9,4.9,0,0,1,116.74,118.55Zm15.65,1.65a4.91,4.91,0,0,1-1.87-6.69h0a4.92,4.92,0,0,1,6.72-1.87h0a4.91,4.91,0,0,1,1.85,6.71h0a4.89,4.89,0,0,1-4.28,2.5h0A4.86,4.86,0,0,1,132.39,120.2Z"/><path class="cls-3" d="M123.25,178.51a5,5,0,0,1-4.45-5.36h0a5,5,0,0,1,5.36-4.45h0a4.93,4.93,0,0,1,4.45,5.38h0a4.92,4.92,0,0,1-4.9,4.45h0A3.7,3.7,0,0,1,123.25,178.51Zm11.54-4.94a5,5,0,0,1,3.53-6h0a4.94,4.94,0,0,1,6,3.53h0a4.92,4.92,0,0,1-3.53,6h0a4.4,4.4,0,0,1-1.24.16h0A5,5,0,0,1,134.79,173.57Zm-28.53.27a4.91,4.91,0,0,1-2.34-6.55h0a4.93,4.93,0,0,1,6.57-2.33h0a4.92,4.92,0,0,1,2.33,6.56h0a4.91,4.91,0,0,1-4.45,2.82h0A4.73,4.73,0,0,1,106.26,173.84ZM150,168.51a4.93,4.93,0,0,1,1.24-6.86h0a4.94,4.94,0,0,1,6.85,1.26h0a4.93,4.93,0,0,1-1.24,6.84h0a5,5,0,0,1-2.82.88h0A4.87,4.87,0,0,1,150,168.51ZM91.9,163.66a4.94,4.94,0,0,1,0-7h0a4.94,4.94,0,0,1,7,0h0a4.92,4.92,0,0,1,0,7h0a4.88,4.88,0,0,1-3.45,1.42h0A4.94,4.94,0,0,1,91.9,163.66Zm70.58-5.12a4.92,4.92,0,0,1-1.16-6.85h0a4.91,4.91,0,0,1,6.87-1.16h0a4.89,4.89,0,0,1,1.16,6.85h0a4.89,4.89,0,0,1-4,2.07h0A5,5,0,0,1,162.48,158.54Zm-80.6-9.35a4.92,4.92,0,0,1,2.42-6.54h0a4.9,4.9,0,0,1,6.52,2.42h0a4.91,4.91,0,0,1-2.4,6.52h0a4.78,4.78,0,0,1-2.07.45h0A4.94,4.94,0,0,1,81.88,149.19Zm89-4.27a4.94,4.94,0,0,1-3.45-6h0a4.94,4.94,0,0,1,6.07-3.45h0a4.94,4.94,0,0,1,3.43,6.07h0a4.92,4.92,0,0,1-4.75,3.6h0A5.27,5.27,0,0,1,170.87,144.92ZM77.43,132.14a4.9,4.9,0,0,1,4.51-5.3h0a4.93,4.93,0,0,1,5.32,4.49h0a4.92,4.92,0,0,1-4.49,5.31h0l-.42,0h0A4.93,4.93,0,0,1,77.43,132.14Zm91.33-7.41a.25.25,0,0,0,0-.12h0v0h0a4.94,4.94,0,0,1,4.49-5.31h0a4.94,4.94,0,0,1,5.34,4.49h0v.07h0v.12h0a4.93,4.93,0,0,1-4.51,5.32h-.39A4.92,4.92,0,0,1,168.76,124.73Zm-86.27-4.08A5,5,0,0,1,79,114.59h0a4.91,4.91,0,0,1,6-3.43h0a4.93,4.93,0,0,1,3.47,6h0a5,5,0,0,1-4.77,3.62h0A4.85,4.85,0,0,1,82.49,120.65Zm82.65-9.8a4.92,4.92,0,0,1,2.4-6.54h0a5,5,0,0,1,6.54,2.42h0a4.93,4.93,0,0,1-2.4,6.52h0a4.84,4.84,0,0,1-2.07.45h0A4.88,4.88,0,0,1,165.14,110.85Zm-77.37-5.3a4.92,4.92,0,0,1-1.18-6.87h0a4.91,4.91,0,0,1,6.85-1.16h0a4.89,4.89,0,0,1,1.18,6.85h0a4.92,4.92,0,0,1-4,2.09h0A4.86,4.86,0,0,1,87.77,105.55ZM157,99.21a4.94,4.94,0,0,1,0-7h0a4.94,4.94,0,0,1,7,0h0a4.94,4.94,0,0,1,0,7h0a5,5,0,0,1-3.49,1.42h0A4.91,4.91,0,0,1,157,99.21ZM97.85,93.14a5,5,0,0,1,1.24-6.85h0a4.93,4.93,0,0,1,6.85,1.22h0a4.91,4.91,0,0,1-1.24,6.86h0a4.73,4.73,0,0,1-2.79.88h0A4.94,4.94,0,0,1,97.85,93.14ZM145.43,91a4.93,4.93,0,0,1-2.34-6.56h0a4.91,4.91,0,0,1,6.55-2.34h0A4.92,4.92,0,0,1,152,88.65h0a4.92,4.92,0,0,1-4.45,2.82h0A5.13,5.13,0,0,1,145.43,91Zm-33.85-6.07a4.9,4.9,0,0,1,3.52-6h0a4.91,4.91,0,0,1,6,3.5h0a4.92,4.92,0,0,1-3.53,6h0a4.35,4.35,0,0,1-1.24.16h0A4.94,4.94,0,0,1,111.58,84.93Zm20.16,2.35h0a4.93,4.93,0,0,1-4.45-5.36h0a4.9,4.9,0,0,1,5.36-4.45h0a4.93,4.93,0,0,1,4.47,5.34h0a4.94,4.94,0,0,1-4.89,4.49h0Z"/><path class="cls-3" d="M124.91,194.68a4.94,4.94,0,0,1-4.69-5.16h0a4.94,4.94,0,0,1,5.16-4.69h0a4.94,4.94,0,0,1,4.69,5.16h0a4.94,4.94,0,0,1-4.91,4.69h-.25Zm10.87-5.14a4.89,4.89,0,0,1,3.8-5.81h0a4.92,4.92,0,0,1,5.83,3.82h0a4.93,4.93,0,0,1-3.82,5.81h0a4.33,4.33,0,0,1-1,.1h0A4.9,4.9,0,0,1,135.78,189.54Zm-27.34,2.28a4.9,4.9,0,0,1-3.26-6.14h0a4.91,4.91,0,0,1,6.14-3.27h0a4.92,4.92,0,0,1,3.27,6.14h0a4.92,4.92,0,0,1-4.71,3.49h0A4.54,4.54,0,0,1,108.44,191.82Zm42.38-6.14a4.94,4.94,0,0,1,2.25-6.6h0a4.91,4.91,0,0,1,6.57,2.25h0a4.91,4.91,0,0,1-2.24,6.59h0a4.94,4.94,0,0,1-2.16.52h0A4.94,4.94,0,0,1,150.82,185.68ZM93.18,185a4.92,4.92,0,0,1-1.63-6.77h0a4.92,4.92,0,0,1,6.77-1.64h0a4.93,4.93,0,0,1,1.64,6.78h0a5,5,0,0,1-4.22,2.34h0A4.93,4.93,0,0,1,93.18,185Zm71.25-6.77a4.92,4.92,0,0,1,.55-7h0a4.91,4.91,0,0,1,6.93.56h0a4.9,4.9,0,0,1-.55,6.93h0a4.92,4.92,0,0,1-3.19,1.18h0A5,5,0,0,1,164.43,178.2Zm-84.3-3.69a4.94,4.94,0,0,1,.1-7h0a4.94,4.94,0,0,1,7,.12h0a4.9,4.9,0,0,1-.12,7h0a4.88,4.88,0,0,1-3.43,1.4h0A4.9,4.9,0,0,1,80.13,174.51Zm95.64-6.95a4.93,4.93,0,0,1-1.2-6.85h0a4.93,4.93,0,0,1,6.86-1.2h0a4.91,4.91,0,0,1,1.2,6.85h0a4.91,4.91,0,0,1-4,2.11h0A4.94,4.94,0,0,1,175.77,167.56Zm-105.7-6.4a4.92,4.92,0,0,1,1.81-6.71h0a4.93,4.93,0,0,1,6.73,1.81h0A4.93,4.93,0,0,1,76.78,163h0a4.9,4.9,0,0,1-2.44.65h0A4.93,4.93,0,0,1,70.07,161.16Zm114-6.71a4.9,4.9,0,0,1-2.85-6.34h0a5,5,0,0,1,6.34-2.88h0a4.94,4.94,0,0,1,2.87,6.34h0a4.91,4.91,0,0,1-4.62,3.19h0A5.16,5.16,0,0,1,184.1,154.45ZM63.63,145.72a4.91,4.91,0,0,1,3.44-6h0a4.91,4.91,0,0,1,6.05,3.42h0a4.93,4.93,0,0,1-3.43,6.07h0a5.11,5.11,0,0,1-1.32.18h0A4.93,4.93,0,0,1,63.63,145.72Zm125.28-6a4.93,4.93,0,0,1-4.35-5.44h0c0-.08,0-.14,0-.21h0a4.9,4.9,0,0,1,5.41-4.38h0a4.9,4.9,0,0,1,4.37,5.42h0v.14h0a.25.25,0,0,0,0,.12h0a4.9,4.9,0,0,1-4.88,4.37h0A5.06,5.06,0,0,1,188.91,139.68ZM61.24,129.16a4.94,4.94,0,0,1,4.85-5h0a4.93,4.93,0,0,1,5,4.84h0a4.91,4.91,0,0,1-4.85,5h-.07A4.94,4.94,0,0,1,61.24,129.16Zm123.08-9.39a4.89,4.89,0,0,1,4.16-5.57h0a4.88,4.88,0,0,1,5.57,4.15h0a4.9,4.9,0,0,1-4.16,5.57h0a4.17,4.17,0,0,1-.71.06h0A4.91,4.91,0,0,1,184.32,119.77Zm-117.6-1.3a4.91,4.91,0,0,1-3.67-5.91h0A4.92,4.92,0,0,1,69,108.9h0a4.93,4.93,0,0,1,3.66,5.93h0a4.93,4.93,0,0,1-4.8,3.78h0A4.3,4.3,0,0,1,66.72,118.47ZM180.5,106a4.93,4.93,0,0,1,2.64-6.46h0a4.93,4.93,0,0,1,6.44,2.64h0a4.93,4.93,0,0,1-2.64,6.44h0a4.55,4.55,0,0,1-1.91.4h0A5,5,0,0,1,180.5,106ZM71,103.52a4.91,4.91,0,0,1-2.07-6.63h0a4.94,4.94,0,0,1,6.66-2.07h0a4.92,4.92,0,0,1,2,6.65h0a4.92,4.92,0,0,1-4.37,2.62h0A4.74,4.74,0,0,1,71,103.52Zm102.4-9.84a4.92,4.92,0,0,1,1-6.9h0a4.94,4.94,0,0,1,6.91,1h0a4.93,4.93,0,0,1-1,6.89h0a4.89,4.89,0,0,1-3,1h0A4.91,4.91,0,0,1,173.39,93.68ZM78.87,90.13a4.92,4.92,0,0,1-.34-6.95h0a4.92,4.92,0,0,1,7-.33h0a4.93,4.93,0,0,1,.33,7h0a4.93,4.93,0,0,1-3.64,1.61h0A4.82,4.82,0,0,1,78.87,90.13Zm84.56-6.67a4.92,4.92,0,0,1-.77-6.92h0a4.91,4.91,0,0,1,6.91-.78h0a4.92,4.92,0,0,1,.77,6.93h0a4.89,4.89,0,0,1-3.84,1.85h0A4.92,4.92,0,0,1,163.43,83.46ZM89.82,79.12a4.94,4.94,0,0,1,1.39-6.83h0A4.92,4.92,0,0,1,98,73.69h0a4.9,4.9,0,0,1-1.38,6.81h0a5,5,0,0,1-2.72.83h0A5,5,0,0,1,89.82,79.12Zm61.44-3.07h0a4.94,4.94,0,0,1-2.48-6.52h0a4.92,4.92,0,0,1,6.49-2.48h0a4.92,4.92,0,0,1,2.48,6.52h0a4.87,4.87,0,0,1-4.48,2.91h0A4.79,4.79,0,0,1,151.26,76.05Zm-48.09-4.9a4.9,4.9,0,0,1,3-6.26h0a4.91,4.91,0,0,1,6.26,3h0a4.93,4.93,0,0,1-3,6.26h0a5,5,0,0,1-1.61.26h0A4.88,4.88,0,0,1,103.17,71.15Zm34.46.77a5,5,0,0,1-4-5.7h0a5,5,0,0,1,5.69-4h0a4.91,4.91,0,0,1,4,5.67h0a4.93,4.93,0,0,1-4.84,4.1h0A5.69,5.69,0,0,1,137.63,71.92Zm-19.57-5.16a4.92,4.92,0,0,1,4.53-5.3h0A4.91,4.91,0,0,1,127.88,66h0a4.91,4.91,0,0,1-4.51,5.3h0a2.61,2.61,0,0,1-.39,0h0A4.94,4.94,0,0,1,118.06,66.76Z"/><path class="cls-3" d="M123.86,211.28a4.91,4.91,0,0,1-4.66-5.16h0a4.9,4.9,0,0,1,5.16-4.67h0a4.91,4.91,0,0,1,4.66,5.16h0a4.9,4.9,0,0,1-4.9,4.67h-.26Zm11.23-5a5,5,0,0,1,4.11-5.62h0a4.94,4.94,0,0,1,5.62,4.12h0a4.92,4.92,0,0,1-4.12,5.61h0a4.93,4.93,0,0,1-.75.06h0A4.92,4.92,0,0,1,135.09,206.3Zm-27.9,2.46a4.93,4.93,0,0,1-3.55-6h0a4.94,4.94,0,0,1,6-3.54h0a4.93,4.93,0,0,1,3.54,6h0a4.94,4.94,0,0,1-4.76,3.69h0A4.35,4.35,0,0,1,107.19,208.76Zm43.51-5.48a4.91,4.91,0,0,1,2.9-6.32h0a4.93,4.93,0,0,1,6.32,2.9h0A4.91,4.91,0,0,1,157,206.2h0a5.14,5.14,0,0,1-1.72.29h0A4.91,4.91,0,0,1,150.7,203.28Zm-59.33-.35a4.94,4.94,0,0,1-2.26-6.6h0a4.91,4.91,0,0,1,6.58-2.24h0A4.88,4.88,0,0,1,98,200.66h0a4.88,4.88,0,0,1-4.41,2.76h0A5,5,0,0,1,91.37,202.93Zm74-5.75a5,5,0,0,1,1.55-6.79h0a4.94,4.94,0,0,1,6.8,1.57h0a4.92,4.92,0,0,1-1.56,6.77h0a4.77,4.77,0,0,1-2.6.75h0A4.87,4.87,0,0,1,165.38,197.18ZM77.06,194a4.88,4.88,0,0,1-.89-6.89h0a4.88,4.88,0,0,1,6.89-.89h0a4.88,4.88,0,0,1,.89,6.89h0a4.89,4.89,0,0,1-3.9,1.91h0A4.85,4.85,0,0,1,77.06,194Zm101.47-5.77a4.92,4.92,0,0,1,.16-7h0a5,5,0,0,1,7,.17h0a4.93,4.93,0,0,1-.18,7h0a5,5,0,0,1-3.4,1.36h0A4.93,4.93,0,0,1,178.53,188.24ZM64.81,182.41a4.93,4.93,0,0,1,.53-6.95h0a4.9,4.9,0,0,1,6.93.53h0a4.9,4.9,0,0,1-.51,6.93h0a4.86,4.86,0,0,1-3.21,1.2h0A5,5,0,0,1,64.81,182.41Zm124.81-5.57a4.91,4.91,0,0,1-1.24-6.86h0a4.93,4.93,0,0,1,6.85-1.22h0a4.92,4.92,0,0,1,1.24,6.86h0a5,5,0,0,1-4.06,2.1h0A4.88,4.88,0,0,1,189.62,176.84ZM55.16,168.59a4.91,4.91,0,0,1,1.89-6.7h0a4.91,4.91,0,0,1,6.69,1.91h0a4.93,4.93,0,0,1-1.89,6.7h0a5.09,5.09,0,0,1-2.4.63h0A4.9,4.9,0,0,1,55.16,168.59Zm143-5.14A4.92,4.92,0,0,1,195.6,157h0a4.93,4.93,0,0,1,6.48-2.58h0a4.93,4.93,0,0,1,2.58,6.46h0a4.92,4.92,0,0,1-4.53,3h0A5,5,0,0,1,198.18,163.45ZM48.46,153.11a5,5,0,0,1,3.21-6.19h0a5,5,0,0,1,6.19,3.23h0a4.94,4.94,0,0,1-3.21,6.17h0a5.26,5.26,0,0,1-1.5.23h0A4.93,4.93,0,0,1,48.46,153.11Zm155.43-4.51a4.9,4.9,0,0,1-3.84-5.81h0a4.93,4.93,0,0,1,5.81-3.84h0a5,5,0,0,1,3.84,5.83h0a4.94,4.94,0,0,1-4.82,3.92h0A4.16,4.16,0,0,1,203.89,148.6Zm-158.83-12a4.93,4.93,0,0,1,4.39-5.4h0a4.92,4.92,0,0,1,5.39,4.39h0a4.9,4.9,0,0,1-4.39,5.4h0a4.38,4.38,0,0,1-.51,0h0A4.9,4.9,0,0,1,45.06,136.59ZM201.53,128c0-.06,0-.12,0-.16h0c0-.06,0-.1,0-.15h0a5,5,0,0,1,4.91-5h0a4.93,4.93,0,0,1,4.94,4.91h0v.17h0V128h0a4.91,4.91,0,0,1-4.91,4.92h0A4.93,4.93,0,0,1,201.53,128Zm-152.1-2.88A4.91,4.91,0,0,1,45,119.75h0a4.91,4.91,0,0,1,5.37-4.43h0a4.93,4.93,0,0,1,4.43,5.39h0a4.92,4.92,0,0,1-4.9,4.43h0A4.1,4.1,0,0,1,49.43,125.12ZM200,112.9a4.91,4.91,0,0,1,3.81-5.83h0a4.94,4.94,0,0,1,5.83,3.82h0a5,5,0,0,1-3.83,5.83h0a5.55,5.55,0,0,1-1,.09h0A4.91,4.91,0,0,1,200,112.9Zm-148.4-3.53a4.92,4.92,0,0,1-3.23-6.16h0A4.92,4.92,0,0,1,54.53,100h0a4.93,4.93,0,0,1,3.23,6.16h0a4.91,4.91,0,0,1-4.71,3.45h0A4.75,4.75,0,0,1,51.59,109.37Zm143.9-10.63h0A4.91,4.91,0,0,1,198,92.26h0a4.94,4.94,0,0,1,6.48,2.54h0a4.91,4.91,0,0,1-2.56,6.48h0a5,5,0,0,1-2,.41h0A4.91,4.91,0,0,1,195.49,98.74ZM56.91,94.38A4.92,4.92,0,0,1,55,87.69h0a4.93,4.93,0,0,1,6.7-1.93h0a5,5,0,0,1,1.93,6.7h0A4.93,4.93,0,0,1,59.29,95h0A4.89,4.89,0,0,1,56.91,94.38Zm131.31-8.62a4.88,4.88,0,0,1,1.2-6.85h0a4.91,4.91,0,0,1,6.85,1.2h0a4.91,4.91,0,0,1-1.2,6.85h0a4.86,4.86,0,0,1-2.83.89h0A4.89,4.89,0,0,1,188.22,85.76Zm-123.08-5a4.91,4.91,0,0,1-.55-6.93h0a4.93,4.93,0,0,1,7-.56h0a4.91,4.91,0,0,1,.53,6.94h0A4.87,4.87,0,0,1,68.33,82h0A4.93,4.93,0,0,1,65.14,80.78Zm113.33-6.26a5,5,0,0,1-.2-7h0a5,5,0,0,1,7-.19h0a4.94,4.94,0,0,1,.2,7h0a5,5,0,0,1-3.58,1.53h0A4.93,4.93,0,0,1,178.47,74.52ZM75.93,69.1a4.92,4.92,0,0,1,.85-6.91h0a4.93,4.93,0,0,1,6.91.85h0A4.92,4.92,0,0,1,82.83,70h0a4.79,4.79,0,0,1-3,1h0A4.93,4.93,0,0,1,75.93,69.1Zm90.75-3.66h0a4.91,4.91,0,0,1-1.59-6.78h0a4.93,4.93,0,0,1,6.77-1.59h0a4.91,4.91,0,0,1,1.6,6.77h0a4.92,4.92,0,0,1-4.19,2.35h0A4.84,4.84,0,0,1,166.68,65.44ZM88.83,59.82a5,5,0,0,1,2.23-6.61h0a4.92,4.92,0,0,1,6.59,2.24h0a4.92,4.92,0,0,1-2.22,6.6h0a5.23,5.23,0,0,1-2.19.51h0A4.92,4.92,0,0,1,88.83,59.82Zm64.49-.88a4.92,4.92,0,0,1-2.93-6.32h0a4.93,4.93,0,0,1,6.32-2.94h0A4.92,4.92,0,0,1,159.63,56h0A4.94,4.94,0,0,1,155,59.23h0A5,5,0,0,1,153.32,58.94Zm-50-5.61a4.93,4.93,0,0,1,3.53-6h0a4.93,4.93,0,0,1,6,3.51h0a4.93,4.93,0,0,1-3.53,6h0a4.43,4.43,0,0,1-1.24.18h0A5,5,0,0,1,103.34,53.33Zm35.57,1.93h0a5,5,0,0,1-4.16-5.6h0a5,5,0,0,1,5.62-4.15h0a4.94,4.94,0,0,1,4.13,5.61h0a4.91,4.91,0,0,1-4.86,4.2h0A4.49,4.49,0,0,1,138.91,55.26Zm-20-5.36a5,5,0,0,1,4.67-5.18h0a4.94,4.94,0,0,1,5.18,4.67h0A5,5,0,0,1,124,54.57h-.25A4.94,4.94,0,0,1,118.86,49.9Z"/><path class="cls-3" d="M119.83,228.08a4.92,4.92,0,0,1-4.51-5.3h0a4.91,4.91,0,0,1,5.3-4.51h0a4.93,4.93,0,0,1,4.51,5.3h0a4.94,4.94,0,0,1-4.91,4.53h0A2.55,2.55,0,0,1,119.83,228.08Zm11.24-4.51a4.93,4.93,0,0,1,4.51-5.32h0a4.9,4.9,0,0,1,5.3,4.49h0a4.9,4.9,0,0,1-4.49,5.32h0a2.88,2.88,0,0,1-.41,0h0A4.94,4.94,0,0,1,131.07,223.57Zm-27.61,1.81,0,0h0a4.93,4.93,0,0,1-3.58-6h0a4.89,4.89,0,0,1,6-3.56h0a4.92,4.92,0,0,1,3.58,6h0a5,5,0,0,1-4.76,3.73h0A5.19,5.19,0,0,1,103.46,225.38Zm43.29-3.61a4.92,4.92,0,0,1,3.56-6h0a4.92,4.92,0,0,1,6,3.56h0a4.93,4.93,0,0,1-3.57,6h0a5,5,0,0,1-1.22.14h0A4.93,4.93,0,0,1,146.75,221.77Zm-59-1.75a4.93,4.93,0,0,1-2.54-6.48h0a4.94,4.94,0,0,1,6.5-2.54h0a4.94,4.94,0,0,1,2.54,6.48h0a5,5,0,0,1-4.53,3h0A5,5,0,0,1,87.77,220Zm74.16-2.6a4.92,4.92,0,0,1,2.52-6.5h0a5,5,0,0,1,6.5,2.52h0a4.94,4.94,0,0,1-2.54,6.5h0a4.92,4.92,0,0,1-2,.42h0A5,5,0,0,1,161.93,217.42Zm-88.75-5.27a4.93,4.93,0,0,1-1.42-6.82h0a4.91,4.91,0,0,1,6.81-1.44h0A4.92,4.92,0,0,1,80,210.71h0a4.93,4.93,0,0,1-4.12,2.22h0A5,5,0,0,1,73.18,212.15Zm103-1.54a4.89,4.89,0,0,1,1.42-6.81h0a4.9,4.9,0,0,1,6.81,1.41h0A4.94,4.94,0,0,1,183,212h0a4.88,4.88,0,0,1-2.7.8h0A4.88,4.88,0,0,1,176.17,210.61ZM60.1,202a4.89,4.89,0,0,1-.29-7h0a4.9,4.9,0,0,1,7-.29h0a4.92,4.92,0,0,1,.29,6.95h0a4.88,4.88,0,0,1-3.62,1.59h0A4.89,4.89,0,0,1,60.1,202Zm129-.41a4.92,4.92,0,0,1,.27-7h0a5,5,0,0,1,7,.27h0a4.94,4.94,0,0,1-.29,7h0a4.9,4.9,0,0,1-3.33,1.32h0A4.86,4.86,0,0,1,189.09,201.55ZM48.86,189.79h0a4.92,4.92,0,0,1,.84-6.91h0a4.93,4.93,0,0,1,6.92.85h0a4.92,4.92,0,0,1-.83,6.91h0a4.88,4.88,0,0,1-3,1h0A4.87,4.87,0,0,1,48.86,189.79Zm151.49.71a4.92,4.92,0,0,1-.85-6.91h0a4.94,4.94,0,0,1,6.91-.87h0a4.93,4.93,0,0,1,.87,6.92h0a4.87,4.87,0,0,1-3.88,1.91h0A5,5,0,0,1,200.35,190.5ZM39.76,176a4.91,4.91,0,0,1,2-6.68h0a4.9,4.9,0,0,1,6.67,2h0a4.93,4.93,0,0,1-2,6.68h0a5.11,5.11,0,0,1-2.35.59h0A4.91,4.91,0,0,1,39.76,176Zm169.9,1.81a4.93,4.93,0,0,1-2-6.67h0a4.9,4.9,0,0,1,6.67-2h0a4.91,4.91,0,0,1,2,6.67h0a5,5,0,0,1-4.33,2.58h0A4.94,4.94,0,0,1,209.66,177.76Zm-176.6-17h0a4.93,4.93,0,0,1,3.06-6.26h0a4.92,4.92,0,0,1,6.26,3.05h0a4.94,4.94,0,0,1-3.05,6.26h0a5.13,5.13,0,0,1-1.62.26h0A4.94,4.94,0,0,1,33.06,160.79Zm183.69,2.85a4.93,4.93,0,0,1-3.07-6.26h0a4.93,4.93,0,0,1,6.26-3h0a4.94,4.94,0,0,1,3.06,6.26h0a4.92,4.92,0,0,1-4.65,3.33h0A5,5,0,0,1,216.75,163.64ZM29,144.72A4.94,4.94,0,0,1,33,139.05h0a4.92,4.92,0,0,1,5.67,4h0a4.93,4.93,0,0,1-4,5.68h0a4.59,4.59,0,0,1-.81.07h0A5,5,0,0,1,29,144.72Zm192.43,3.84a4.91,4.91,0,0,1-4.06-5.65h0a4.91,4.91,0,0,1,5.66-4.06h0a4.89,4.89,0,0,1,4.05,5.65h0a4.9,4.9,0,0,1-4.84,4.12h0A5.52,5.52,0,0,1,221.4,148.56ZM27.59,128.22a4.94,4.94,0,0,1,4.9-5h0a4.94,4.94,0,0,1,4.95,4.93h0a4.91,4.91,0,0,1-4.91,4.92h0A4.91,4.91,0,0,1,27.59,128.22Zm191-.22v-.2h0v-.19h0a4.92,4.92,0,0,1,4.9-5h0a4.92,4.92,0,0,1,4.94,4.91h0v.21h0V128h0a4.92,4.92,0,0,1-4.92,4.92h0A4.92,4.92,0,0,1,218.57,128ZM33,117.35a4.92,4.92,0,0,1-4.06-5.66h0a4.91,4.91,0,0,1,5.65-4h0a4.91,4.91,0,0,1,4.06,5.65h0a4.93,4.93,0,0,1-4.85,4.12h0A5.39,5.39,0,0,1,33,117.35Zm184.32-4.63a4.91,4.91,0,0,1,4-5.69h0a5,5,0,0,1,5.69,4h0a4.93,4.93,0,0,1-4,5.68h0a5.93,5.93,0,0,1-.83.07h0A4.91,4.91,0,0,1,217.29,112.72ZM36,101.85a4.91,4.91,0,0,1-3.07-6.24h0a5,5,0,0,1,6.24-3.08h0a4.93,4.93,0,0,1,3.07,6.27h0a5,5,0,0,1-4.67,3.32h0A4.43,4.43,0,0,1,36,101.85Zm177.56-3.61a5,5,0,0,1,3-6.28h0a4.94,4.94,0,0,1,6.26,3h0a4.9,4.9,0,0,1-3,6.26h0a4.87,4.87,0,0,1-1.62.27h0A4.92,4.92,0,0,1,213.56,98.24Zm-172-11.16a4.93,4.93,0,0,1-2-6.68h0a4.93,4.93,0,0,1,6.68-2h0a4.91,4.91,0,0,1,2,6.66h0a4.93,4.93,0,0,1-4.34,2.6h0A5.11,5.11,0,0,1,41.55,87.08Zm166-2.5a4.91,4.91,0,0,1,2-6.68h0a4.92,4.92,0,0,1,6.67,1.95h0a4.93,4.93,0,0,1-2,6.7h0a5,5,0,0,1-2.34.59h0A4.94,4.94,0,0,1,207.5,84.58Zm-158-11.15a4.92,4.92,0,0,1-.87-6.91h0a4.94,4.94,0,0,1,6.91-.89h0a4.93,4.93,0,0,1,.87,6.92h0a4.89,4.89,0,0,1-3.9,1.91h0A5,5,0,0,1,49.47,73.43Zm149.8-1.32a4.93,4.93,0,0,1,.82-6.91h0A4.91,4.91,0,0,1,207,66h0a4.9,4.9,0,0,1-.83,6.91h0a4.88,4.88,0,0,1-3,1h0A4.88,4.88,0,0,1,199.27,72.11ZM59.53,61.26a4.92,4.92,0,0,1,.28-7h0a4.94,4.94,0,0,1,7,.28h0a4.9,4.9,0,0,1-.28,7h0a4.88,4.88,0,0,1-3.35,1.32h0A4.86,4.86,0,0,1,59.53,61.26Zm129.57-.12a4.93,4.93,0,0,1-.31-7h0a4.92,4.92,0,0,1,7-.31h0a4.92,4.92,0,0,1,.32,6.95h0a4.93,4.93,0,0,1-3.65,1.59h0A4.86,4.86,0,0,1,189.1,61.14ZM71.44,50.9a5,5,0,0,1,1.4-6.83h0a4.91,4.91,0,0,1,6.82,1.42h0a4.93,4.93,0,0,1-1.4,6.81h0a4.87,4.87,0,0,1-2.7.81h0A4.89,4.89,0,0,1,71.44,50.9ZM177.27,52h0a4.94,4.94,0,0,1-1.44-6.82h0a4.93,4.93,0,0,1,6.8-1.43h0a4.92,4.92,0,0,1,1.45,6.81h0A4.9,4.9,0,0,1,180,52.8h0A4.81,4.81,0,0,1,177.27,52Zm-92.4-9.36a4.91,4.91,0,0,1,2.52-6.49h0a4.89,4.89,0,0,1,6.48,2.5h0a4.91,4.91,0,0,1-2.5,6.49h0a4.71,4.71,0,0,1-2,.44h0A4.93,4.93,0,0,1,84.87,42.63Zm79.23,2.29a4.93,4.93,0,0,1-2.54-6.48h0A4.92,4.92,0,0,1,168,35.88h0a4.93,4.93,0,0,1,2.54,6.48h0a4.93,4.93,0,0,1-4.51,3h0A5.05,5.05,0,0,1,164.1,44.92ZM99.5,36.71a5,5,0,0,1,3.55-6h0a4.93,4.93,0,0,1,6,3.56h0a4.91,4.91,0,0,1-3.55,6h0a5.24,5.24,0,0,1-1.22.16h0A4.94,4.94,0,0,1,99.5,36.71Zm50.44,3.4a4.93,4.93,0,0,1-3.59-6h0a4.94,4.94,0,0,1,6-3.61h0a4.93,4.93,0,0,1,3.58,6h0a4.91,4.91,0,0,1-4.76,3.74h0A5,5,0,0,1,149.94,40.11Zm-35-6.83a5,5,0,0,1,4.49-5.34h0a4.94,4.94,0,0,1,5.32,4.49h0a4.9,4.9,0,0,1-4.49,5.32h0a3.24,3.24,0,0,1-.43,0h0A4.92,4.92,0,0,1,114.9,33.28Zm20.29,4.43h0a4.92,4.92,0,0,1-4.53-5.3h0a5,5,0,0,1,5.3-4.53h0a5,5,0,0,1,4.53,5.3h0a4.94,4.94,0,0,1-4.91,4.55h0A2.55,2.55,0,0,1,135.19,37.71Z"/><path class="cls-3" d="M128.12,244.34a4.93,4.93,0,0,1-4.93-4.92h0a4.91,4.91,0,0,1,4.93-4.92h0a4.93,4.93,0,0,1,4.92,4.92h0a4.92,4.92,0,0,1-4.92,4.92Zm-16.54-1.16a4.92,4.92,0,0,1-4.2-5.55h0a4.92,4.92,0,0,1,5.57-4.18h0a4.93,4.93,0,0,1,4.2,5.56h0a4.93,4.93,0,0,1-4.88,4.23h0A4.11,4.11,0,0,1,111.58,243.18ZM139.09,239a4.92,4.92,0,0,1,4.17-5.58h0a4.93,4.93,0,0,1,5.58,4.18h0a4.92,4.92,0,0,1-4.18,5.57h0c-.24,0-.47,0-.71,0h0A4.92,4.92,0,0,1,139.09,239Zm-43.74.7a4.91,4.91,0,0,1-3.35-6.1h0a4.92,4.92,0,0,1,6.11-3.35h0a4.92,4.92,0,0,1,3.34,6.11h0a4.9,4.9,0,0,1-4.72,3.54h0A4.8,4.8,0,0,1,95.35,239.69Zm59.41-3.4a4.93,4.93,0,0,1,3.33-6.11h0a4.93,4.93,0,0,1,6.12,3.33h0a4.93,4.93,0,0,1-3.34,6.13h0a6,6,0,0,1-1.38.19h0A4.94,4.94,0,0,1,154.76,236.29Zm-75-2.38a4.91,4.91,0,0,1-2.44-6.52h0A4.91,4.91,0,0,1,83.87,225h0a5,5,0,0,1,2.44,6.53h0a5,5,0,0,1-4.49,2.88h0A5,5,0,0,1,79.79,233.91Zm90.1-2.51a4.92,4.92,0,0,1,2.44-6.53h0a4.9,4.9,0,0,1,6.51,2.42h0a4.93,4.93,0,0,1-2.42,6.54h0a5.12,5.12,0,0,1-2,.43h0A4.94,4.94,0,0,1,169.89,231.4ZM65.22,226a5,5,0,0,1-1.5-6.81h0a4.93,4.93,0,0,1,6.82-1.48h0A4.9,4.9,0,0,1,72,224.47h0a4.87,4.87,0,0,1-4.13,2.27h0A5,5,0,0,1,65.22,226Zm118.94-1.6a4.94,4.94,0,0,1,1.46-6.81h0a4.94,4.94,0,0,1,6.81,1.48h0a4.93,4.93,0,0,1-1.47,6.81h0a4.91,4.91,0,0,1-2.66.79h0A4.91,4.91,0,0,1,184.16,224.37ZM51.93,216a4.92,4.92,0,0,1-.51-7h0a4.94,4.94,0,0,1,6.95-.49h0a4.9,4.9,0,0,1,.49,6.93h0a4.86,4.86,0,0,1-3.72,1.72h0A4.85,4.85,0,0,1,51.93,216Zm145.35-.63a4.91,4.91,0,0,1,.49-6.93h0a4.92,4.92,0,0,1,6.95.48h0a4.94,4.94,0,0,1-.49,6.95h0a5,5,0,0,1-3.23,1.2h0A4.89,4.89,0,0,1,197.28,215.39ZM40.19,204.31a4.91,4.91,0,0,1,.47-6.93h0a4.93,4.93,0,0,1,7,.47h0a4.94,4.94,0,0,1-.5,7h0a4.87,4.87,0,0,1-3.23,1.2h0A4.88,4.88,0,0,1,40.19,204.31Zm168.8.35a4.93,4.93,0,0,1-.47-6.95h0a4.93,4.93,0,0,1,6.95-.49h0a4.92,4.92,0,0,1,.5,6.95h0a4.92,4.92,0,0,1-3.73,1.69h0A5,5,0,0,1,209,204.66ZM30.21,191.05a4.91,4.91,0,0,1,1.46-6.79h0a4.91,4.91,0,0,1,6.81,1.46h0A4.89,4.89,0,0,1,37,192.51h0a4.79,4.79,0,0,1-2.66.81h0A4.93,4.93,0,0,1,30.21,191.05Zm188.89,1.3a4.9,4.9,0,0,1-1.48-6.79h0a4.92,4.92,0,0,1,6.81-1.48h0a4.9,4.9,0,0,1,1.46,6.8h0a4.91,4.91,0,0,1-4.14,2.26h0A4.82,4.82,0,0,1,219.1,192.35ZM22.23,176.52A4.93,4.93,0,0,1,24.65,170h0a4.93,4.93,0,0,1,6.52,2.43h0a4.91,4.91,0,0,1-2.4,6.53h0a5.1,5.1,0,0,1-2.07.46h0A4.91,4.91,0,0,1,22.23,176.52Zm205.12,2.23a4.93,4.93,0,0,1-2.44-6.52h0a4.92,4.92,0,0,1,6.53-2.44h0a5,5,0,0,1,2.43,6.53h0a5,5,0,0,1-4.49,2.88h0A5.07,5.07,0,0,1,227.35,178.75ZM16.4,161a4.93,4.93,0,0,1,3.33-6.12h0a4.93,4.93,0,0,1,6.11,3.33h0a4.92,4.92,0,0,1-3.33,6.12h0a4.7,4.7,0,0,1-1.38.2h0A4.92,4.92,0,0,1,16.4,161Zm217.15,3.12a4.93,4.93,0,0,1-3.33-6.11h0a4.91,4.91,0,0,1,6.11-3.35h0a5,5,0,0,1,3.35,6.11h0a5,5,0,0,1-4.73,3.54h0A5.19,5.19,0,0,1,233.55,164.1ZM12.86,144.78A4.92,4.92,0,0,1,17,139.2h0a4.94,4.94,0,0,1,5.58,4.16h0a4.9,4.9,0,0,1-4.18,5.57h0a4.17,4.17,0,0,1-.71.06h0A4.92,4.92,0,0,1,12.86,144.78Zm224.75,3.94a4.92,4.92,0,0,1-4.18-5.58h0A4.94,4.94,0,0,1,239,139h0a4.94,4.94,0,0,1,4.17,5.57h0a4.94,4.94,0,0,1-4.88,4.24h0A4.11,4.11,0,0,1,237.61,148.72ZM11.66,128.24a4.94,4.94,0,0,1,4.9-5h0a4.94,4.94,0,0,1,4.94,4.93h0a4.91,4.91,0,0,1-4.9,4.92h0A4.9,4.9,0,0,1,11.66,128.24ZM234.5,128h0v-.18h0v-.27h0a4.94,4.94,0,0,1,4.9-5h0a4.93,4.93,0,0,1,4.94,4.91h0v.25h0V128h0a4.92,4.92,0,0,1-4.92,4.92h0A4.92,4.92,0,0,1,234.5,128ZM17,117.25a5,5,0,0,1-4.2-5.56h0a5,5,0,0,1,5.57-4.19h0a4.93,4.93,0,0,1,4.2,5.55h0a4.91,4.91,0,0,1-4.87,4.24h0A4,4,0,0,1,17,117.25Zm216.39-4.85a4.9,4.9,0,0,1,4.16-5.57h0A4.9,4.9,0,0,1,243.1,111h0a4.92,4.92,0,0,1-4.15,5.57h0a4.34,4.34,0,0,1-.71.06h0A4.92,4.92,0,0,1,233.37,112.4ZM19.61,101.57a4.92,4.92,0,0,1-3.34-6.1h0a4.9,4.9,0,0,1,6.1-3.35h0a4.91,4.91,0,0,1,3.35,6.09h0A4.94,4.94,0,0,1,21,101.77h0A5.68,5.68,0,0,1,19.61,101.57Zm210.48-4a4.94,4.94,0,0,1,3.32-6.13h0a4.94,4.94,0,0,1,6.13,3.33h0a4.93,4.93,0,0,1-3.33,6.12h0a4.84,4.84,0,0,1-1.4.2h0A4.94,4.94,0,0,1,230.09,97.58ZM24.48,86.41A4.91,4.91,0,0,1,22,79.89h0a4.91,4.91,0,0,1,6.51-2.44h0A4.93,4.93,0,0,1,31,84h0a5,5,0,0,1-4.49,2.89h0A4.9,4.9,0,0,1,24.48,86.41Zm200.25-3a4.94,4.94,0,0,1,2.4-6.54h0a4.93,4.93,0,0,1,6.54,2.4h0a4.93,4.93,0,0,1-2.4,6.54h0a4.93,4.93,0,0,1-2.07.45h0A4.94,4.94,0,0,1,224.73,83.38ZM31.45,72.11A4.89,4.89,0,0,1,30,65.32h0a4.93,4.93,0,0,1,6.8-1.5h0a4.93,4.93,0,0,1,1.49,6.8h0a4.94,4.94,0,0,1-4.15,2.28h0A4.93,4.93,0,0,1,31.45,72.11Zm186-2a4.94,4.94,0,0,1,1.44-6.82h0a4.91,4.91,0,0,1,6.81,1.46h0a4.92,4.92,0,0,1-1.45,6.81h0a5,5,0,0,1-2.66.79h0A4.91,4.91,0,0,1,217.4,70.09ZM40.41,59a4.9,4.9,0,0,1-.51-7h0a4.91,4.91,0,0,1,6.93-.51h0a4.91,4.91,0,0,1,.51,7h0a4.91,4.91,0,0,1-3.72,1.71h0A4.86,4.86,0,0,1,40.41,59Zm167.84-1a4.92,4.92,0,0,1,.47-6.95h0a4.9,4.9,0,0,1,6.93.48h0a4.93,4.93,0,0,1-.45,7h0a5,5,0,0,1-3.25,1.2h0A4.83,4.83,0,0,1,208.25,58ZM51.12,47.2a4.93,4.93,0,0,1,.47-7h0a4.93,4.93,0,0,1,6.95.49h0a4.91,4.91,0,0,1-.49,6.93h0a4.77,4.77,0,0,1-3.23,1.23h0A4.9,4.9,0,0,1,51.12,47.2Zm146.35.06a4.91,4.91,0,0,1-.53-6.93h0a4.93,4.93,0,0,1,6.95-.53h0a5,5,0,0,1,.52,7h0a5,5,0,0,1-3.75,1.71h0A4.85,4.85,0,0,1,197.47,47.26ZM63.37,37.08a4.93,4.93,0,0,1,1.46-6.81h0a4.92,4.92,0,0,1,6.81,1.45h0a4.93,4.93,0,0,1-1.46,6.82h0a4.9,4.9,0,0,1-2.65.79h0A5,5,0,0,1,63.37,37.08ZM185.29,38.2a4.91,4.91,0,0,1-1.5-6.81h0a4.93,4.93,0,0,1,6.79-1.5h0a5,5,0,0,1,1.5,6.82h0A5,5,0,0,1,187.92,39h0A4.93,4.93,0,0,1,185.29,38.2ZM77,28.81a4.93,4.93,0,0,1,2.4-6.54h0a4.93,4.93,0,0,1,6.54,2.42h0a4.92,4.92,0,0,1-2.42,6.52h0a4.71,4.71,0,0,1-2,.46h0A4.93,4.93,0,0,1,77,28.81Zm95,2.15a4.94,4.94,0,0,1-2.46-6.52h0A4.92,4.92,0,0,1,176,22h0a4.92,4.92,0,0,1,2.46,6.51h0a4.93,4.93,0,0,1-4.49,2.9h0A5,5,0,0,1,171.93,31ZM91.57,22.55a4.94,4.94,0,0,1,3.33-6.13h0A5,5,0,0,1,101,19.75h0a5,5,0,0,1-3.33,6.13h0a5.24,5.24,0,0,1-1.4.19h0A4.92,4.92,0,0,1,91.57,22.55Zm66.11,3.13a4.92,4.92,0,0,1-3.37-6.09h0a4.93,4.93,0,0,1,6.1-3.36h0a4.92,4.92,0,0,1,3.37,6.1h0a4.94,4.94,0,0,1-4.73,3.55h0A4.64,4.64,0,0,1,157.68,25.68ZM107,18.45a4.91,4.91,0,0,1,4.15-5.59h0A5,5,0,0,1,116.68,17h0a4.91,4.91,0,0,1-4.16,5.58h0a4.17,4.17,0,0,1-.71.06h0A4.93,4.93,0,0,1,107,18.45Zm35.88,4.06a4.91,4.91,0,0,1-4.2-5.55h0a4.94,4.94,0,0,1,5.56-4.2h0a4.92,4.92,0,0,1,4.19,5.57h0a4.94,4.94,0,0,1-4.86,4.24h0A3.93,3.93,0,0,1,142.83,22.51Zm-15.16-1a4.91,4.91,0,0,1-4.93-4.92h0a4.89,4.89,0,0,1,4.9-4.92h0a4.9,4.9,0,0,1,4.93,4.9h0a4.92,4.92,0,0,1-4.9,4.94Zm0-9.84Z"/><circle class="cls-4" cx="128" cy="128" r="127.01" transform="translate(-53.02 128) rotate(-45)"/><path class="cls-5" d="M128,163.54a5,5,0,0,1-5-5h0a5,5,0,0,1,5-5h0a5,5,0,0,1,5,4.94h0a5,5,0,0,1-5,5Zm-17.78-4.74a5,5,0,0,1-1.81-6.79h0a5,5,0,0,1,6.77-1.8h0A4.94,4.94,0,0,1,117,157h0a4.89,4.89,0,0,1-4.3,2.48h0A4.9,4.9,0,0,1,110.26,158.8ZM139,157a4.93,4.93,0,0,1,1.81-6.76h0a5,5,0,0,1,6.79,1.78h0a5,5,0,0,1-1.81,6.79h0a4.92,4.92,0,0,1-2.48.67h0A5,5,0,0,1,139,157ZM97.26,145.82A5,5,0,0,1,99.05,139h0a5,5,0,0,1,6.78,1.81h0a5,5,0,0,1-1.8,6.79h0a4.94,4.94,0,0,1-2.48.67h0A4.94,4.94,0,0,1,97.26,145.82ZM152,147.57a5,5,0,0,1-1.82-6.77h0A5,5,0,0,1,157,139h0a5,5,0,0,1,1.81,6.79h0a5,5,0,0,1-4.31,2.48h0A4.93,4.93,0,0,1,152,147.57ZM92.46,128.06a5,5,0,0,1,5-5h0a5,5,0,0,1,5,5h0a4.94,4.94,0,0,1-4.94,5h0A5,5,0,0,1,92.46,128.06Zm61.16-.06v-.06h0v-.06h0a5,5,0,0,1,4.92-5h0a5,5,0,0,1,5,4.94h0v.08h0V128h0a5,5,0,0,1-5,5h0A5,5,0,0,1,153.62,128ZM99,117.07a4.94,4.94,0,0,1-1.83-6.77h0a5,5,0,0,1,6.77-1.83h0a5,5,0,0,1,1.82,6.77h0a4.92,4.92,0,0,1-4.3,2.5h0A4.87,4.87,0,0,1,99,117.07Zm51.14-2a5,5,0,0,1,1.78-6.79h0a5,5,0,0,1,6.79,1.79h0a5,5,0,0,1-1.79,6.79h0a4.94,4.94,0,0,1-2.48.67h0A4.92,4.92,0,0,1,150.15,115.1Zm-41.8-11a5,5,0,0,1,1.79-6.79h0a5,5,0,0,1,6.79,1.81h0a5,5,0,0,1-1.79,6.76h0a4.78,4.78,0,0,1-2.5.7h0A5,5,0,0,1,108.35,104.05Zm32.37,1.7A5,5,0,0,1,138.9,99h0a4.94,4.94,0,0,1,6.76-1.83h0a4.94,4.94,0,0,1,1.83,6.77h0a5,5,0,0,1-4.29,2.5h0A4.88,4.88,0,0,1,140.72,105.75Zm-17.78-8.31a5,5,0,0,1,4.94-5h0a5,5,0,0,1,5,4.94h0a5,5,0,0,1-4.94,5h0A5,5,0,0,1,122.94,97.44Z"/><path class="cls-5" d="M128,163.54a5,5,0,0,1-5-5h0a5,5,0,0,1,5-5h0a5,5,0,0,1,5,4.94h0a5,5,0,0,1-5,5Zm-17.78-4.74a5,5,0,0,1-1.81-6.79h0a5,5,0,0,1,6.77-1.8h0A4.94,4.94,0,0,1,117,157h0a4.89,4.89,0,0,1-4.3,2.48h0A4.9,4.9,0,0,1,110.26,158.8ZM139,157a4.93,4.93,0,0,1,1.81-6.76h0a5,5,0,0,1,6.79,1.78h0a5,5,0,0,1-1.81,6.79h0a4.92,4.92,0,0,1-2.48.67h0A5,5,0,0,1,139,157ZM97.26,145.82A5,5,0,0,1,99.05,139h0a5,5,0,0,1,6.78,1.81h0a5,5,0,0,1-1.8,6.79h0a4.94,4.94,0,0,1-2.48.67h0A4.94,4.94,0,0,1,97.26,145.82ZM152,147.57a5,5,0,0,1-1.82-6.77h0A5,5,0,0,1,157,139h0a5,5,0,0,1,1.81,6.79h0a5,5,0,0,1-4.31,2.48h0A4.93,4.93,0,0,1,152,147.57ZM92.46,128.06a5,5,0,0,1,5-5h0a5,5,0,0,1,5,5h0a4.94,4.94,0,0,1-4.94,5h0A5,5,0,0,1,92.46,128.06Zm61.16-.06v-.06h0v-.06h0a5,5,0,0,1,4.92-5h0a5,5,0,0,1,5,4.94h0v.08h0V128h0a5,5,0,0,1-5,5h0A5,5,0,0,1,153.62,128ZM99,117.07a4.94,4.94,0,0,1-1.83-6.77h0a5,5,0,0,1,6.77-1.83h0a5,5,0,0,1,1.82,6.77h0a4.92,4.92,0,0,1-4.3,2.5h0A4.87,4.87,0,0,1,99,117.07Zm51.14-2a5,5,0,0,1,1.78-6.79h0a5,5,0,0,1,6.79,1.79h0a5,5,0,0,1-1.79,6.79h0a4.94,4.94,0,0,1-2.48.67h0A4.92,4.92,0,0,1,150.15,115.1Zm-41.8-11a5,5,0,0,1,1.79-6.79h0a5,5,0,0,1,6.79,1.81h0a5,5,0,0,1-1.79,6.76h0a4.78,4.78,0,0,1-2.5.7h0A5,5,0,0,1,108.35,104.05Zm32.37,1.7A5,5,0,0,1,138.9,99h0a4.94,4.94,0,0,1,6.76-1.83h0a4.94,4.94,0,0,1,1.83,6.77h0a5,5,0,0,1-4.29,2.5h0A4.88,4.88,0,0,1,140.72,105.75Zm-17.78-8.31a5,5,0,0,1,4.94-5h0a5,5,0,0,1,5,4.94h0a5,5,0,0,1-4.94,5h0A5,5,0,0,1,122.94,97.44Z"/><path class="cls-5" d="M118.59,144.43a5,5,0,0,1-1.82-6.77h0a4.94,4.94,0,0,1,6.76-1.84h0a5,5,0,0,1,1.83,6.77h0a4.94,4.94,0,0,1-4.31,2.5h0A5,5,0,0,1,118.59,144.43Zm12.13-1.84a5,5,0,0,1,1.8-6.79h0a4.93,4.93,0,0,1,6.77,1.79h0a5,5,0,0,1-1.78,6.78h0a5,5,0,0,1-2.51.68h0A5,5,0,0,1,130.72,142.59ZM109.07,128.1a4.94,4.94,0,0,1,4.92-5h0a5,5,0,0,1,5,4.94h0a5,5,0,0,1-4.94,5h0A5,5,0,0,1,109.07,128.1Zm27.94,0v-.2h0a5,5,0,0,1,4.9-5h0a5,5,0,0,1,5,4.9h0v0h0v.16h0V128h0a5,5,0,0,1-5,5h0A5,5,0,0,1,137,128.08Zm-20.36-9.61a5,5,0,0,1,1.75-6.8h0a4.94,4.94,0,0,1,6.78,1.76h0a4.93,4.93,0,0,1-1.74,6.79h0a4.84,4.84,0,0,1-2.53.7h0A4.94,4.94,0,0,1,116.65,118.47Zm15.77,1.67a5,5,0,0,1-1.88-6.75h0a5,5,0,0,1,6.77-1.88h0a5,5,0,0,1,1.86,6.77h0a4.94,4.94,0,0,1-4.3,2.52h0A5,5,0,0,1,132.42,120.14Z"/><path class="cls-5" d="M123.22,178.9a5,5,0,0,1-4.49-5.4h0a5,5,0,0,1,5.4-4.48h0a5,5,0,0,1,4.48,5.42h0a5,5,0,0,1-4.94,4.48h0A3.54,3.54,0,0,1,123.22,178.9Zm11.63-5a5,5,0,0,1,3.55-6h0a5,5,0,0,1,6,3.55h0a4.94,4.94,0,0,1-3.55,6.05h0a4.47,4.47,0,0,1-1.25.16h0A5,5,0,0,1,134.85,173.92Zm-28.76.28a5,5,0,0,1-2.36-6.61h0a5,5,0,0,1,6.63-2.34h0a5,5,0,0,1,2.34,6.61h0a5,5,0,0,1-4.49,2.84h0A4.77,4.77,0,0,1,106.09,174.2Zm44.06-5.38a5,5,0,0,1,1.25-6.9h0a5,5,0,0,1,6.9,1.27h0a5,5,0,0,1-1.25,6.88h0a4.94,4.94,0,0,1-2.83.89h0A4.92,4.92,0,0,1,150.15,168.82Zm-58.53-4.88a5,5,0,0,1,0-7h0a5,5,0,0,1,7,0h0a5,5,0,0,1-.06,7h0a4.91,4.91,0,0,1-3.47,1.43h0A5,5,0,0,1,91.62,163.94Zm71.13-5.16a5,5,0,0,1-1.17-6.91h0a5,5,0,0,1,6.92-1.17h0a4.94,4.94,0,0,1,1.17,6.91h0a4.93,4.93,0,0,1-4,2.08h0A4.94,4.94,0,0,1,162.75,158.78Zm-81.23-9.43A5,5,0,0,1,84,142.76h0a4.94,4.94,0,0,1,6.57,2.45h0a4.93,4.93,0,0,1-2.42,6.56h0a4.83,4.83,0,0,1-2.08.46h0A5,5,0,0,1,81.52,149.35Zm89.68-4.3a5,5,0,0,1-3.47-6.1h0a5,5,0,0,1,6.11-3.47h0a5,5,0,0,1,3.45,6.11h0a5,5,0,0,1-4.78,3.64h0A5,5,0,0,1,171.2,145.05ZM77,132.17a4.94,4.94,0,0,1,4.54-5.34h0a5,5,0,0,1,5.36,4.52h0a5,5,0,0,1-4.52,5.36h0l-.42,0h0A5,5,0,0,1,77,132.17Zm92-7.46a.25.25,0,0,0,0-.12h0v0h0a5,5,0,0,1,4.52-5.36h0a5,5,0,0,1,5.38,4.52h0v.08h0v.12h0a5,5,0,0,1-4.54,5.36H174A5,5,0,0,1,169.08,124.71ZM82.14,120.6a5,5,0,0,1-3.48-6.11h0a5,5,0,0,1,6.1-3.46h0a5,5,0,0,1,3.49,6.1h0a5,5,0,0,1-4.8,3.65h0A4.87,4.87,0,0,1,82.14,120.6Zm83.29-9.88a5,5,0,0,1,2.42-6.59h0a5,5,0,0,1,6.59,2.44h0a5,5,0,0,1-2.42,6.57h0a5.08,5.08,0,0,1-2.09.45h0A4.92,4.92,0,0,1,165.43,110.72Zm-78-5.34a5,5,0,0,1-1.19-6.93h0a5,5,0,0,1,6.9-1.17h0a4.94,4.94,0,0,1,1.19,6.91h0a5,5,0,0,1-4,2.1h0A4.9,4.9,0,0,1,87.46,105.38ZM157.25,99a5,5,0,0,1,0-7h0a5,5,0,0,1,7,0h0a5,5,0,0,1,0,7h0a5,5,0,0,1-3.52,1.43h0A4.94,4.94,0,0,1,157.25,99ZM97.62,92.87A5,5,0,0,1,98.87,86h0a5,5,0,0,1,6.9,1.23h0a4.94,4.94,0,0,1-1.25,6.9h0a4.74,4.74,0,0,1-2.81.9h0A5,5,0,0,1,97.62,92.87Zm47.94-2.16a5,5,0,0,1-2.36-6.61h0a5,5,0,0,1,6.61-2.36h0a5,5,0,0,1,2.36,6.61h0a5,5,0,0,1-4.48,2.84h0A5.08,5.08,0,0,1,145.56,90.71ZM111.45,84.6a4.94,4.94,0,0,1,3.55-6h0a4.94,4.94,0,0,1,6,3.53h0a4.94,4.94,0,0,1-3.55,6h0a4.42,4.42,0,0,1-1.25.16h0A5,5,0,0,1,111.45,84.6ZM131.77,87h0a5,5,0,0,1-4.49-5.4h0a4.93,4.93,0,0,1,5.4-4.48h0a5,5,0,0,1,4.51,5.38h0A5,5,0,0,1,132.25,87h0Z"/><path class="cls-5" d="M124.88,195.2a5,5,0,0,1-4.72-5.2h0a5,5,0,0,1,5.2-4.73h0a5,5,0,0,1,4.72,5.2h0a5,5,0,0,1-4.94,4.73h-.26Zm11-5.18a4.93,4.93,0,0,1,3.83-5.86h0a5,5,0,0,1,5.87,3.85h0a5,5,0,0,1-3.85,5.86h0a4.32,4.32,0,0,1-1,.09h0A4.93,4.93,0,0,1,135.84,190Zm-27.55,2.3a5,5,0,0,1-3.29-6.19h0a5,5,0,0,1,6.19-3.3h0a5,5,0,0,1,3.29,6.19h0a4.94,4.94,0,0,1-4.74,3.52h0A4.6,4.6,0,0,1,108.29,192.32ZM151,186.13a5,5,0,0,1,2.26-6.65h0a5,5,0,0,1,6.63,2.26h0a5,5,0,0,1-2.26,6.65h0a5,5,0,0,1-2.18.51h0A5,5,0,0,1,151,186.13Zm-58.09-.72a5,5,0,0,1-1.64-6.82h0a5,5,0,0,1,6.82-1.65h0a5,5,0,0,1,1.65,6.82h0a5,5,0,0,1-4.25,2.37h0A4.92,4.92,0,0,1,92.91,185.41Zm71.8-6.82a5,5,0,0,1,.56-7h0a4.93,4.93,0,0,1,7,.56h0a4.94,4.94,0,0,1-.55,7h0a5,5,0,0,1-3.22,1.19h0A5,5,0,0,1,164.71,178.59Zm-84.95-3.72a5,5,0,0,1,.1-7h0a5,5,0,0,1,7,.12h0a4.92,4.92,0,0,1-.12,7h0a4.89,4.89,0,0,1-3.45,1.41h0A4.94,4.94,0,0,1,79.76,174.87Zm96.38-7a5,5,0,0,1-1.21-6.91h0a5,5,0,0,1,6.91-1.21h0a5,5,0,0,1,1.21,6.91h0a4.92,4.92,0,0,1-4.05,2.12h0A5,5,0,0,1,176.14,167.87ZM69.62,161.42a5,5,0,0,1,1.82-6.77h0a5,5,0,0,1,6.79,1.83h0a5,5,0,0,1-1.85,6.78h0a5,5,0,0,1-2.46.66h0A5,5,0,0,1,69.62,161.42Zm114.92-6.77a5,5,0,0,1-2.88-6.39h0a5,5,0,0,1,6.39-2.9h0a5,5,0,0,1,2.9,6.39h0a5,5,0,0,1-4.66,3.22h0A5,5,0,0,1,184.54,154.65ZM63.13,145.86a5,5,0,0,1,3.47-6.09h0a4.93,4.93,0,0,1,6.09,3.45h0a5,5,0,0,1-3.45,6.11h0a5.24,5.24,0,0,1-1.33.18h0A5,5,0,0,1,63.13,145.86Zm126.25-6.09a5,5,0,0,1-4.39-5.48h0c0-.08,0-.14,0-.22h0a4.94,4.94,0,0,1,5.46-4.4h0a4.94,4.94,0,0,1,4.41,5.45h0v.14h0a.25.25,0,0,0,0,.12h0a5,5,0,0,1-4.92,4.41h0A5.24,5.24,0,0,1,189.38,139.77ZM60.72,129.17a5,5,0,0,1,4.89-5h0a5,5,0,0,1,5,4.88h0a4.94,4.94,0,0,1-4.88,5h-.08A5,5,0,0,1,60.72,129.17Zm124-9.47a4.92,4.92,0,0,1,4.18-5.61h0a4.93,4.93,0,0,1,5.62,4.19h0a4.93,4.93,0,0,1-4.19,5.61h0a4.25,4.25,0,0,1-.71.06h0A4.94,4.94,0,0,1,184.76,119.7ZM66.24,118.39a4.93,4.93,0,0,1-3.69-6h0a5,5,0,0,1,6-3.69h0a5,5,0,0,1,3.7,6h0a5,5,0,0,1-4.85,3.81h0A4.43,4.43,0,0,1,66.24,118.39Zm114.67-12.52a5,5,0,0,1,2.66-6.51h0a5,5,0,0,1,6.48,2.66h0a5,5,0,0,1-2.65,6.49h0a4.64,4.64,0,0,1-1.93.4h0A5,5,0,0,1,180.91,105.87ZM70.55,103.33a5,5,0,0,1-2.09-6.69h0a5,5,0,0,1,6.71-2.08h0a5,5,0,0,1,2.07,6.71h0a5,5,0,0,1-4.41,2.64h0A4.79,4.79,0,0,1,70.55,103.33Zm103.19-9.92a5,5,0,0,1,.95-7h0a5,5,0,0,1,7,1h0a5,5,0,0,1-1,6.94h0a4.94,4.94,0,0,1-3,1h0A5,5,0,0,1,173.74,93.41ZM78.49,89.84a5,5,0,0,1-.34-7h0a5,5,0,0,1,7-.33h0a4.94,4.94,0,0,1,.34,7h0a5,5,0,0,1-3.67,1.63h0A4.9,4.9,0,0,1,78.49,89.84Zm85.21-6.73a5,5,0,0,1-.77-7h0a5,5,0,0,1,7-.79h0a5,5,0,0,1,.78,7h0a4.94,4.94,0,0,1-3.87,1.86h0A5,5,0,0,1,163.7,83.11ZM89.52,78.74a5,5,0,0,1,1.41-6.88h0a5,5,0,0,1,6.86,1.41h0a4.93,4.93,0,0,1-1.38,6.86h0a5,5,0,0,1-2.74.84h0A5,5,0,0,1,89.52,78.74Zm61.92-3.09h0a5,5,0,0,1-2.5-6.57h0a5,5,0,0,1,6.54-2.5h0a5,5,0,0,1,2.5,6.57h0a4.93,4.93,0,0,1-4.52,2.94h0A4.85,4.85,0,0,1,151.44,75.65ZM103,70.71A5,5,0,0,1,106,64.4h0a4.94,4.94,0,0,1,6.31,3.07h0a5,5,0,0,1-3.06,6.31h0a5.08,5.08,0,0,1-1.62.26h0A4.92,4.92,0,0,1,103,70.71Zm34.73.77a5,5,0,0,1-4.06-5.73h0a5,5,0,0,1,5.73-4h0a4.94,4.94,0,0,1,4,5.71h0a5,5,0,0,1-4.88,4.13h0A5.93,5.93,0,0,1,137.7,71.48ZM118,66.28a5,5,0,0,1,4.56-5.34h0a5,5,0,0,1,5.34,4.55h0a5,5,0,0,1-4.54,5.34h0a2.82,2.82,0,0,1-.4,0h0A5,5,0,0,1,118,66.28Z"/><path class="cls-5" d="M123.83,211.92a4.94,4.94,0,0,1-4.7-5.19h0a4.94,4.94,0,0,1,5.2-4.71h0a5,5,0,0,1,4.7,5.2h0a4.94,4.94,0,0,1-4.94,4.7h-.26Zm11.31-5a5,5,0,0,1,4.15-5.65h0A5,5,0,0,1,145,205.4h0a5,5,0,0,1-4.15,5.65h0a5.06,5.06,0,0,1-.76.06h0A5,5,0,0,1,135.14,206.9ZM107,209.38a5,5,0,0,1-3.57-6h0a5,5,0,0,1,6-3.57h0a5,5,0,0,1,3.58,6.05h0a5,5,0,0,1-4.81,3.71h0A4.52,4.52,0,0,1,107,209.38Zm43.86-5.51a5,5,0,0,1,2.92-6.37h0a5,5,0,0,1,6.37,2.91h0a5,5,0,0,1-2.92,6.39h0a5.19,5.19,0,0,1-1.72.3h0A5,5,0,0,1,150.88,203.87Zm-59.79-.36a5,5,0,0,1-2.28-6.65h0a4.93,4.93,0,0,1,6.62-2.26h0a4.93,4.93,0,0,1,2.29,6.63h0A5,5,0,0,1,93.27,204h0A5,5,0,0,1,91.09,203.51Zm74.57-5.79a5,5,0,0,1,1.57-6.85h0a5,5,0,0,1,6.85,1.59h0a4.94,4.94,0,0,1-1.57,6.82h0a4.83,4.83,0,0,1-2.62.76h0A5,5,0,0,1,165.66,197.72Zm-89-3.2a4.93,4.93,0,0,1-.89-7h0a4.91,4.91,0,0,1,6.94-.89h0a4.93,4.93,0,0,1,.9,6.95h0a4.94,4.94,0,0,1-3.93,1.92h0A5,5,0,0,1,76.66,194.52Zm102.26-5.81a5,5,0,0,1,.16-7h0a5,5,0,0,1,7,.18h0a5,5,0,0,1-.17,7h0a5,5,0,0,1-3.44,1.37h0A5,5,0,0,1,178.92,188.71Zm-114.6-5.88a5,5,0,0,1,.53-7h0a5,5,0,0,1,7,.53h0a5,5,0,0,1-.52,7h0a4.9,4.9,0,0,1-3.23,1.21h0A5,5,0,0,1,64.32,182.83Zm125.78-5.61a5,5,0,0,1-1.25-6.91h0a5,5,0,0,1,6.9-1.23h0A5,5,0,0,1,197,176h0a5,5,0,0,1-4.09,2.12h0A5,5,0,0,1,190.1,177.22ZM54.59,168.9a5,5,0,0,1,1.91-6.75h0a5,5,0,0,1,6.75,1.93h0a5,5,0,0,1-1.91,6.75h0a5.2,5.2,0,0,1-2.42.63h0A4.94,4.94,0,0,1,54.59,168.9Zm144.14-5.18a5,5,0,0,1-2.6-6.51h0a5,5,0,0,1,6.53-2.6h0a5,5,0,0,1,2.6,6.51h0a5,5,0,0,1-4.57,3h0A4.84,4.84,0,0,1,198.73,163.72ZM47.84,153.3a5,5,0,0,1,3.24-6.23h0a5,5,0,0,1,6.23,3.26h0a5,5,0,0,1-3.23,6.21h0a5,5,0,0,1-1.51.24h0A5,5,0,0,1,47.84,153.3Zm156.64-4.54a4.94,4.94,0,0,1-3.87-5.86h0a5,5,0,0,1,5.86-3.87h0a5,5,0,0,1,3.87,5.88h0a5,5,0,0,1-4.86,4h0A4.24,4.24,0,0,1,204.48,148.76ZM44.41,136.65a5,5,0,0,1,4.43-5.44h0a5,5,0,0,1,5.44,4.43h0a5,5,0,0,1-4.43,5.44h0a4.55,4.55,0,0,1-.52,0h0A5,5,0,0,1,44.41,136.65ZM202.1,128c0-.06,0-.12,0-.16h0c0-.06,0-.1,0-.16h0a5,5,0,0,1,4.94-5h0a5,5,0,0,1,5,4.94h0v.18h0V128h0a4.94,4.94,0,0,1-4.94,5h0A5,5,0,0,1,202.1,128ZM48.82,125.1a5,5,0,0,1-4.45-5.41h0a5,5,0,0,1,5.42-4.47h0a5,5,0,0,1,4.47,5.44h0a5,5,0,0,1-4.95,4.46h0A4.18,4.18,0,0,1,48.82,125.1Zm151.73-12.32a5,5,0,0,1,3.83-5.88h0a5,5,0,0,1,5.88,3.85h0a5,5,0,0,1-3.85,5.88h0a5.86,5.86,0,0,1-1,.1h0A5,5,0,0,1,200.55,112.78ZM51,109.23A5,5,0,0,1,47.75,103h0A5,5,0,0,1,54,99.76h0A5,5,0,0,1,57.21,106h0a4.93,4.93,0,0,1-4.74,3.47h0A4.75,4.75,0,0,1,51,109.23ZM196,98.51h0A5,5,0,0,1,198.59,92h0a5,5,0,0,1,6.53,2.56h0a5,5,0,0,1-2.58,6.53h0a4.92,4.92,0,0,1-2,.42h0A5,5,0,0,1,196,98.51ZM56.36,94.12a5,5,0,0,1-2-6.74h0a5,5,0,0,1,6.75-1.95h0a5,5,0,0,1,2,6.75h0a5,5,0,0,1-4.35,2.56h0A4.94,4.94,0,0,1,56.36,94.12Zm132.33-8.69a4.91,4.91,0,0,1,1.21-6.9h0a5,5,0,0,1,6.9,1.21h0a5,5,0,0,1-1.21,6.9h0a4.87,4.87,0,0,1-2.86.9h0A4.93,4.93,0,0,1,188.69,85.43Zm-124-5a4.94,4.94,0,0,1-.55-7h0a5,5,0,0,1,7-.56h0a4.94,4.94,0,0,1,.54,7h0a4.91,4.91,0,0,1-3.77,1.74h0A5,5,0,0,1,64.65,80.41ZM178.86,74.1a5,5,0,0,1-.2-7h0a5,5,0,0,1,7-.2h0a5,5,0,0,1,.2,7h0a5,5,0,0,1-3.61,1.55h0A5,5,0,0,1,178.86,74.1ZM75.53,68.64a5,5,0,0,1,.85-7h0a5,5,0,0,1,7,.85h0a5,5,0,0,1-.88,7h0a4.83,4.83,0,0,1-3,1h0A5,5,0,0,1,75.53,68.64ZM167,65h0a4.94,4.94,0,0,1-1.6-6.82h0a5,5,0,0,1,6.82-1.61h0a5,5,0,0,1,1.61,6.82h0a5,5,0,0,1-4.22,2.37h0A4.88,4.88,0,0,1,167,65ZM88.53,59.3a5,5,0,0,1,2.24-6.67h0a5,5,0,0,1,6.65,2.26h0a5,5,0,0,1-2.24,6.65h0a5.18,5.18,0,0,1-2.21.52h0A5,5,0,0,1,88.53,59.3Zm65-.9a5,5,0,0,1-3-6.37h0a5,5,0,0,1,6.37-3h0a5,5,0,0,1,2.94,6.37h0a5,5,0,0,1-4.66,3.25h0A5,5,0,0,1,153.52,58.4Zm-50.37-5.65a5,5,0,0,1,3.56-6h0a5,5,0,0,1,6.05,3.53h0a5,5,0,0,1-3.55,6.05h0a4.55,4.55,0,0,1-1.25.18h0A5,5,0,0,1,103.15,52.75ZM139,54.69h0a5,5,0,0,1-4.18-5.63h0a5,5,0,0,1,5.65-4.19h0a5,5,0,0,1,4.17,5.66h0a5,5,0,0,1-4.9,4.22h0A4.62,4.62,0,0,1,139,54.69Zm-20.2-5.4a5,5,0,0,1,4.7-5.21h0a5,5,0,0,1,5.22,4.7h0A5,5,0,0,1,124,54h-.26A5,5,0,0,1,118.79,49.29Z"/><path class="cls-5" d="M119.76,228.85a5,5,0,0,1-4.54-5.34h0a5,5,0,0,1,5.34-4.54h0a5,5,0,0,1,4.54,5.34h0a5,5,0,0,1-4.94,4.56h0A2.68,2.68,0,0,1,119.76,228.85Zm11.33-4.54a5,5,0,0,1,4.55-5.36h0a4.94,4.94,0,0,1,5.34,4.52h0a4.94,4.94,0,0,1-4.53,5.36h0a2.82,2.82,0,0,1-.41,0h0A5,5,0,0,1,131.09,224.31Zm-27.82,1.82,0,0h0a5,5,0,0,1-3.61-6h0a4.93,4.93,0,0,1,6-3.59h0a5,5,0,0,1,3.62,6h0a5,5,0,0,1-4.81,3.75h0A5.26,5.26,0,0,1,103.27,226.13Zm43.62-3.63a5,5,0,0,1,3.59-6h0a5,5,0,0,1,6,3.59h0a5,5,0,0,1-3.6,6h0a5.1,5.1,0,0,1-1.23.14h0A5,5,0,0,1,146.89,222.5Zm-59.43-1.76a5,5,0,0,1-2.56-6.53h0a5,5,0,0,1,6.55-2.56h0A5,5,0,0,1,94,218.18h0a5,5,0,0,1-4.57,3h0A5.2,5.2,0,0,1,87.46,220.74Zm74.73-2.62a5,5,0,0,1,2.54-6.55h0a5,5,0,0,1,6.55,2.54h0a5,5,0,0,1-2.56,6.55h0a5.13,5.13,0,0,1-2,.41h0A5,5,0,0,1,162.19,218.12ZM72.75,212.8a5,5,0,0,1-1.43-6.87h0a5,5,0,0,1,6.87-1.45h0a5,5,0,0,1,1.43,6.87h0a5,5,0,0,1-4.15,2.24h0A5.11,5.11,0,0,1,72.75,212.8Zm103.79-1.55a5,5,0,0,1,1.43-6.87h0a5,5,0,0,1,6.87,1.43h0a5,5,0,0,1-1.43,6.87h0a5,5,0,0,1-2.72.81h0A4.94,4.94,0,0,1,176.54,211.25Zm-117-8.71a4.94,4.94,0,0,1-.29-7h0a4.94,4.94,0,0,1,7-.3h0a5,5,0,0,1,.3,7h0a4.93,4.93,0,0,1-3.65,1.61h0A5,5,0,0,1,59.57,202.54Zm130-.42a4.94,4.94,0,0,1,.28-7h0a5,5,0,0,1,7,.27h0a5,5,0,0,1-.3,7h0a4.9,4.9,0,0,1-3.35,1.33h0A4.9,4.9,0,0,1,189.56,202.12ZM48.24,190.27h0a5,5,0,0,1,.86-7h0a5,5,0,0,1,7,.85h0a5,5,0,0,1-.83,7h0a5,5,0,0,1-3.06,1.05h0A5,5,0,0,1,48.24,190.27Zm152.67.72a5,5,0,0,1-.85-7h0a5,5,0,0,1,7-.87h0a5,5,0,0,1,.88,7h0A5,5,0,0,1,204,192h0A5.08,5.08,0,0,1,200.91,191ZM39.07,176.32a4.93,4.93,0,0,1,2-6.72h0a4.93,4.93,0,0,1,6.73,2h0a5,5,0,0,1-2,6.73h0a5.15,5.15,0,0,1-2.36.59h0A5,5,0,0,1,39.07,176.32Zm171.23,1.83a5,5,0,0,1-2-6.73h0a5,5,0,0,1,6.73-2h0a4.94,4.94,0,0,1,2,6.72h0a5,5,0,0,1-4.36,2.6h0A5,5,0,0,1,210.3,178.15ZM32.33,161h0a5,5,0,0,1,3.07-6.31h0a5,5,0,0,1,6.31,3.08h0a5,5,0,0,1-3.07,6.31h0a5.14,5.14,0,0,1-1.63.26h0A5,5,0,0,1,32.33,161Zm185.11,2.88a5,5,0,0,1-3.09-6.31h0a5,5,0,0,1,6.31-3.08h0a5,5,0,0,1,3.07,6.31h0a5,5,0,0,1-4.68,3.36h0A5,5,0,0,1,217.44,163.92ZM28.2,144.85a5,5,0,0,1,4.09-5.72h0A5,5,0,0,1,38,143.2h0a5,5,0,0,1-4.09,5.72h0a3.77,3.77,0,0,1-.81.08h0A5,5,0,0,1,28.2,144.85Zm193.92,3.87A4.94,4.94,0,0,1,218,143h0a4.93,4.93,0,0,1,5.69-4.09h0a4.94,4.94,0,0,1,4.09,5.7h0a4.94,4.94,0,0,1-4.88,4.15h0A5.66,5.66,0,0,1,222.12,148.72ZM26.81,128.22a5,5,0,0,1,4.94-5h0a5,5,0,0,1,5,5h0a4.94,4.94,0,0,1-4.94,5h0A5,5,0,0,1,26.81,128.22ZM219.27,128v-.2h0v-.2h0a5,5,0,0,1,4.94-5h0a5,5,0,0,1,5,4.94h0v.22h0V128h0a5,5,0,0,1-5,5h0A5,5,0,0,1,219.27,128Zm-187-10.74a4.94,4.94,0,0,1-4.09-5.69h0a5,5,0,0,1,5.7-4.09h0a5,5,0,0,1,4.08,5.7h0A4.94,4.94,0,0,1,33,117.32h0A5.52,5.52,0,0,1,32.23,117.26ZM218,112.6a5,5,0,0,1,4.05-5.73h0a5,5,0,0,1,5.73,4.06h0a5,5,0,0,1-4.07,5.72h0a5.83,5.83,0,0,1-.83.08h0A5,5,0,0,1,218,112.6ZM35.28,101.65a5,5,0,0,1-3.09-6.29h0a5,5,0,0,1,6.29-3.1h0a5,5,0,0,1,3.1,6.31h0a5,5,0,0,1-4.7,3.35h0A4.77,4.77,0,0,1,35.28,101.65Zm179-3.64a5,5,0,0,1,3.05-6.33h0a5,5,0,0,1,6.31,3.06h0a4.92,4.92,0,0,1-3.05,6.31h0a4.66,4.66,0,0,1-1.63.28h0A4.94,4.94,0,0,1,214.23,98ZM40.88,86.76a5,5,0,0,1-2-6.73h0a5,5,0,0,1,6.72-2h0a5,5,0,0,1,2,6.71h0a5,5,0,0,1-4.37,2.62h0A5,5,0,0,1,40.88,86.76Zm167.23-2.52a5,5,0,0,1,2-6.73h0a5,5,0,0,1,6.73,2h0a5,5,0,0,1-2,6.75h0a5.15,5.15,0,0,1-2.36.59h0A5,5,0,0,1,208.11,84.24ZM48.86,73A5,5,0,0,1,48,66h0a5,5,0,0,1,7-.89h0a5,5,0,0,1,.87,7h0A4.91,4.91,0,0,1,51.89,74h0A5,5,0,0,1,48.86,73Zm151-1.33a5,5,0,0,1,.83-7h0a4.94,4.94,0,0,1,7,.84h0a4.94,4.94,0,0,1-.83,7h0a4.93,4.93,0,0,1-3.06,1.06h0A4.93,4.93,0,0,1,199.82,71.68ZM59,60.75a5,5,0,0,1,.28-7h0a5,5,0,0,1,7,.28h0A4.92,4.92,0,0,1,66,61h0a4.86,4.86,0,0,1-3.37,1.33h0A4.93,4.93,0,0,1,59,60.75Zm130.58-.12a5,5,0,0,1-.32-7h0a5,5,0,0,1,7-.32h0a5,5,0,0,1,.31,7h0a4.94,4.94,0,0,1-3.67,1.61h0A4.9,4.9,0,0,1,189.58,60.63ZM71,50.31a5,5,0,0,1,1.41-6.89h0a5,5,0,0,1,6.87,1.43h0a5,5,0,0,1-1.41,6.87h0a4.91,4.91,0,0,1-2.72.81h0A4.94,4.94,0,0,1,71,50.31ZM177.65,51.4h0a5,5,0,0,1-1.45-6.87h0a5,5,0,0,1,6.85-1.45h0A5,5,0,0,1,184.52,50h0a4.94,4.94,0,0,1-4.17,2.26h0A4.87,4.87,0,0,1,177.65,51.4ZM84.54,42a5,5,0,0,1,2.54-6.55h0a4.94,4.94,0,0,1,6.53,2.52h0a5,5,0,0,1-2.52,6.55h0a4.8,4.8,0,0,1-2,.44h0A5,5,0,0,1,84.54,42Zm79.84,2.3a5,5,0,0,1-2.56-6.53h0a4.94,4.94,0,0,1,6.53-2.57h0a5,5,0,0,1,2.56,6.52h0a5,5,0,0,1-4.55,3h0A4.94,4.94,0,0,1,164.38,44.27ZM99.28,36A5,5,0,0,1,102.86,30h0a5,5,0,0,1,6,3.59h0a4.94,4.94,0,0,1-3.57,6h0a5.4,5.4,0,0,1-1.23.16h0A5,5,0,0,1,99.28,36Zm50.83,3.43a5,5,0,0,1-3.62-6h0a5,5,0,0,1,6-3.63h0a5,5,0,0,1,3.61,6h0a5,5,0,0,1-4.8,3.77h0A5.05,5.05,0,0,1,150.11,39.43ZM114.8,32.55a5,5,0,0,1,4.53-5.38h0a5,5,0,0,1,5.36,4.52h0a5,5,0,0,1-4.53,5.36h0a3.39,3.39,0,0,1-.44,0h0A4.94,4.94,0,0,1,114.8,32.55ZM135.24,37h0a5,5,0,0,1-4.56-5.34h0A5,5,0,0,1,136,27.11h0a5,5,0,0,1,4.56,5.34h0A5,5,0,0,1,135.64,37h0A2.68,2.68,0,0,1,135.24,37Z"/><path class="cls-5" d="M128.12,245.24a5,5,0,0,1-5-5h0a5,5,0,0,1,5-5h0a5,5,0,0,1,5,5h0a5,5,0,0,1-5,5Zm-16.67-1.17a4.94,4.94,0,0,1-4.23-5.59h0a5,5,0,0,1,5.62-4.21h0a5,5,0,0,1,4.23,5.6h0a5,5,0,0,1-4.93,4.26h0A4.2,4.2,0,0,1,111.45,244.07Zm27.72-4.22a5,5,0,0,1,4.21-5.62h0a5,5,0,0,1,5.62,4.21h0a5,5,0,0,1-4.21,5.61h0c-.24,0-.48,0-.72,0h0A5,5,0,0,1,139.17,239.85Zm-44.07.71a5,5,0,0,1-3.38-6.15h0A5,5,0,0,1,97.87,231h0a5,5,0,0,1,3.38,6.15h0a5,5,0,0,1-4.76,3.57h0A4.82,4.82,0,0,1,95.1,240.56ZM155,237.13a5,5,0,0,1,3.35-6.15h0a5,5,0,0,1,6.17,3.35h0a5,5,0,0,1-3.37,6.17h0a5.56,5.56,0,0,1-1.39.2h0A5,5,0,0,1,155,237.13Zm-75.55-2.4A4.94,4.94,0,0,1,77,228.16h0a5,5,0,0,1,6.57-2.46h0A5,5,0,0,1,86,232.29h0a5,5,0,0,1-4.53,2.89h0A5,5,0,0,1,79.42,234.73Zm90.79-2.52a5,5,0,0,1,2.46-6.59h0a5,5,0,0,1,6.57,2.44h0a5,5,0,0,1-2.44,6.59h0a5.23,5.23,0,0,1-2.07.43h0A5,5,0,0,1,170.21,232.21ZM64.73,226.73a5,5,0,0,1-1.51-6.87h0a5,5,0,0,1,6.87-1.49h0a5,5,0,0,1,1.49,6.85h0a4.91,4.91,0,0,1-4.17,2.28h0A5.13,5.13,0,0,1,64.73,226.73Zm119.87-1.61a5,5,0,0,1,1.47-6.86h0a5,5,0,0,1,6.86,1.48h0a5,5,0,0,1-1.49,6.87h0a4.83,4.83,0,0,1-2.67.79h0A4.94,4.94,0,0,1,184.6,225.12ZM51.34,216.71a5,5,0,0,1-.52-7h0a5,5,0,0,1,7-.49h0a4.93,4.93,0,0,1,.49,7h0a4.89,4.89,0,0,1-3.75,1.73h0A4.9,4.9,0,0,1,51.34,216.71Zm146.47-.64a5,5,0,0,1,.5-7h0a5,5,0,0,1,7,.47h0a5,5,0,0,1-.5,7h0a5,5,0,0,1-3.26,1.21h0A5,5,0,0,1,197.81,216.07ZM39.51,204.9a5,5,0,0,1,.48-7h0a5,5,0,0,1,7,.48h0a5,5,0,0,1-.49,7h0a5,5,0,0,1-3.26,1.21h0A4.89,4.89,0,0,1,39.51,204.9Zm170.11.36a5,5,0,0,1-.47-7h0a5,5,0,0,1,7-.49h0a5,5,0,0,1,.5,7h0a4.93,4.93,0,0,1-3.75,1.71h0A5,5,0,0,1,209.62,205.26ZM29.45,191.54a5,5,0,0,1,1.47-6.84h0a5,5,0,0,1,6.86,1.47h0A4.93,4.93,0,0,1,36.32,193h0a4.81,4.81,0,0,1-2.68.82h0A5,5,0,0,1,29.45,191.54Zm190.35,1.31a5,5,0,0,1-1.49-6.84h0a5,5,0,0,1,6.87-1.49h0a4.94,4.94,0,0,1,1.47,6.85h0a5,5,0,0,1-4.17,2.28h0A5,5,0,0,1,219.8,192.85ZM21.41,176.9a5,5,0,0,1,2.44-6.59h0a5,5,0,0,1,6.57,2.44h0A5,5,0,0,1,28,179.34h0a5.14,5.14,0,0,1-2.08.46h0A5,5,0,0,1,21.41,176.9Zm206.71,2.24a5,5,0,0,1-2.46-6.57h0a5,5,0,0,1,6.58-2.46h0a5,5,0,0,1,2.45,6.59h0a5,5,0,0,1-4.53,2.9h0A5,5,0,0,1,228.12,179.14ZM15.54,161.24a5,5,0,0,1,3.35-6.17h0A5,5,0,0,1,25,158.42h0a5,5,0,0,1-3.35,6.17h0a4.77,4.77,0,0,1-1.39.2h0A5,5,0,0,1,15.54,161.24Zm218.83,3.14a5,5,0,0,1-3.35-6.16h0a4.94,4.94,0,0,1,6.15-3.37h0a5,5,0,0,1,3.37,6.15h0a5,5,0,0,1-4.76,3.57h0A5.26,5.26,0,0,1,234.37,164.38ZM12,144.91a5,5,0,0,1,4.21-5.62h0a5,5,0,0,1,5.62,4.19h0a5,5,0,0,1-4.21,5.62h0a5.65,5.65,0,0,1-.71.05h0A5,5,0,0,1,12,144.91Zm226.5,4a5,5,0,0,1-4.21-5.62h0a5,5,0,0,1,5.62-4.21h0a5,5,0,0,1,4.2,5.62h0a5,5,0,0,1-4.92,4.27h0A4.11,4.11,0,0,1,238.46,148.88ZM10.76,128.24a5,5,0,0,1,4.94-5h0a5,5,0,0,1,5,5h0a5,5,0,0,1-4.94,5h0A4.93,4.93,0,0,1,10.76,128.24ZM235.32,128h0v-.18h0v-.28h0a5,5,0,0,1,4.94-5h0a5,5,0,0,1,5,4.94h0v.26h0V128h0a5,5,0,0,1-5,5h0A5,5,0,0,1,235.32,128ZM16.11,117.16a5,5,0,0,1-4.22-5.59h0a5,5,0,0,1,5.61-4.23h0a5,5,0,0,1,4.23,5.6h0a4.93,4.93,0,0,1-4.9,4.26h0A4.23,4.23,0,0,1,16.11,117.16Zm218.08-4.88a4.93,4.93,0,0,1,4.19-5.61h0a4.92,4.92,0,0,1,5.61,4.18h0a5,5,0,0,1-4.18,5.62h0a4.37,4.37,0,0,1-.72.06h0A5,5,0,0,1,234.19,112.28ZM18.77,101.37a5,5,0,0,1-3.37-6.15h0a5,5,0,0,1,6.15-3.38h0A4.94,4.94,0,0,1,24.92,98h0a5,5,0,0,1-4.76,3.6h0A5.76,5.76,0,0,1,18.77,101.37Zm212.11-4a5,5,0,0,1,3.35-6.17h0a5,5,0,0,1,6.17,3.35h0a5,5,0,0,1-3.35,6.17h0a5,5,0,0,1-1.41.2h0A5,5,0,0,1,230.88,97.34ZM23.67,86.09a5,5,0,0,1-2.46-6.57h0a5,5,0,0,1,6.57-2.46h0a5,5,0,0,1,2.46,6.57h0a5,5,0,0,1-4.52,2.91h0A5,5,0,0,1,23.67,86.09ZM225.48,83a5,5,0,0,1,2.42-6.59h0a5,5,0,0,1,6.59,2.42h0a5,5,0,0,1-2.42,6.59h0a4.88,4.88,0,0,1-2.09.46h0A5,5,0,0,1,225.48,83ZM30.7,71.68a5,5,0,0,1-1.49-6.85h0a5,5,0,0,1,6.85-1.5h0a5,5,0,0,1,1.51,6.84h0a5,5,0,0,1-4.19,2.3h0A4.89,4.89,0,0,1,30.7,71.68Zm187.4-2a5,5,0,0,1,1.44-6.87h0a5,5,0,0,1,6.87,1.47h0a5,5,0,0,1-1.47,6.86h0a4.9,4.9,0,0,1-2.68.8h0A4.94,4.94,0,0,1,218.1,69.64ZM39.73,58.42a5,5,0,0,1-.52-7h0a5,5,0,0,1,7-.52h0a5,5,0,0,1,.51,7h0A4.94,4.94,0,0,1,43,59.63h0A4.85,4.85,0,0,1,39.73,58.42Zm169.14-1a5,5,0,0,1,.48-7h0a4.93,4.93,0,0,1,7,.47h0a5,5,0,0,1-.46,7h0a5,5,0,0,1-3.27,1.21h0A4.9,4.9,0,0,1,208.87,57.43ZM50.52,46.58a5,5,0,0,1,.48-7h0a5,5,0,0,1,7,.5h0a5,5,0,0,1-.5,7h0a4.79,4.79,0,0,1-3.25,1.23h0A5,5,0,0,1,50.52,46.58ZM198,46.64a5,5,0,0,1-.53-7h0a5,5,0,0,1,7-.54h0a5,5,0,0,1,.52,7h0a5,5,0,0,1-3.77,1.73h0A4.93,4.93,0,0,1,198,46.64ZM62.87,36.38a5,5,0,0,1,1.47-6.87h0A5,5,0,0,1,71.2,31h0a5,5,0,0,1-1.47,6.86h0a4.89,4.89,0,0,1-2.67.8h0A5,5,0,0,1,62.87,36.38Zm122.86,1.13a5,5,0,0,1-1.51-6.87h0a5,5,0,0,1,6.85-1.51h0A5,5,0,0,1,192.58,36h0a5,5,0,0,1-4.19,2.28h0A5,5,0,0,1,185.73,37.51ZM76.56,28A5,5,0,0,1,79,21.45h0a5,5,0,0,1,6.59,2.44h0a5,5,0,0,1-2.44,6.57h0a4.75,4.75,0,0,1-2.06.46h0A5,5,0,0,1,76.56,28Zm95.71,2.16a5,5,0,0,1-2.48-6.57h0a5,5,0,0,1,6.57-2.48h0a5,5,0,0,1,2.48,6.57h0a5,5,0,0,1-4.52,2.92h0A4.91,4.91,0,0,1,172.27,30.2Zm-81-8.47a5,5,0,0,1,3.35-6.17h0a5,5,0,0,1,6.17,3.35h0a5,5,0,0,1-3.35,6.17h0a5,5,0,0,1-1.41.2h0A5,5,0,0,1,91.29,21.73Zm66.62,3.16a5,5,0,0,1-3.4-6.14h0a5,5,0,0,1,6.15-3.39h0a5,5,0,0,1,3.4,6.15h0a5,5,0,0,1-4.77,3.57h0A5,5,0,0,1,157.91,24.89ZM106.78,17.6A5,5,0,0,1,111,12h0a5,5,0,0,1,5.62,4.2h0a4.94,4.94,0,0,1-4.19,5.62h0a4.34,4.34,0,0,1-.71.06h0A5,5,0,0,1,106.78,17.6Zm36.16,4.09a4.94,4.94,0,0,1-4.22-5.6h0a5,5,0,0,1,5.59-4.22h0a5,5,0,0,1,4.23,5.61h0a5,5,0,0,1-4.9,4.27h0A4.14,4.14,0,0,1,142.94,21.69Zm-15.28-1a5,5,0,0,1-5-5h0a4.93,4.93,0,0,1,4.94-5h0a4.93,4.93,0,0,1,5,4.94h0a5,5,0,0,1-4.94,5Zm0-9.92Z"/><path d="M128,256A128,128,0,1,1,256,128,128.14,128.14,0,0,1,128,256ZM128,2A126,126,0,1,0,254,128,126.17,126.17,0,0,0,128,2Z"/></svg>