<svg id="Layer_1" data-name="Layer 1" xmlns="http://www.w3.org/2000/svg" viewBox="0 0 256 256"><defs><style>.cls-1{fill:#212121;}.cls-2{fill:#333;}.cls-3{fill:#444;}</style></defs><title>light-off</title><circle class="cls-1" cx="128" cy="128" r="126.03" transform="translate(-53.02 128) rotate(-45)"/><path class="cls-2" d="M128,256A128,128,0,1,1,256,128,128.14,128.14,0,0,1,128,256ZM128,3.94A124.06,124.06,0,1,0,252.06,128,124.2,124.2,0,0,0,128,3.94Z"/><path class="cls-3" d="M128,163.27a5,5,0,0,1-4.94-4.92h0a4.93,4.93,0,0,1,4.92-4.93h0a4.91,4.91,0,0,1,4.94,4.91h0a5,5,0,0,1-4.92,4.94Zm-17.65-4.71a4.94,4.94,0,0,1-1.79-6.73h0a4.92,4.92,0,0,1,6.72-1.79h0a4.9,4.9,0,0,1,1.81,6.71h0a4.87,4.87,0,0,1-4.27,2.46h0A4.86,4.86,0,0,1,110.39,158.56Zm28.54-1.83a4.89,4.89,0,0,1,1.79-6.71h0a4.92,4.92,0,0,1,6.74,1.77h0a4.94,4.94,0,0,1-1.8,6.73h0a4.83,4.83,0,0,1-2.46.67h0A4.91,4.91,0,0,1,138.93,156.73Zm-41.43-11A4.92,4.92,0,0,1,99.27,139h0a4.94,4.94,0,0,1,6.73,1.79h0a4.93,4.93,0,0,1-1.79,6.74h0a4.84,4.84,0,0,1-2.46.67h0A4.9,4.9,0,0,1,97.5,145.68Zm54.33,1.74A4.91,4.91,0,0,1,150,140.7h0a4.93,4.93,0,0,1,6.73-1.81h0a4.94,4.94,0,0,1,1.79,6.73h0a4.91,4.91,0,0,1-4.27,2.47h0A4.83,4.83,0,0,1,151.83,147.42Zm-59.1-19.36a4.92,4.92,0,0,1,4.92-4.92h0a4.91,4.91,0,0,1,4.93,4.92h0A4.91,4.91,0,0,1,97.67,133h0A4.94,4.94,0,0,1,92.73,128.06Zm60.69-.06v-.06h0v-.06h0a4.92,4.92,0,0,1,4.89-4.94h0a4.94,4.94,0,0,1,5,4.9h0v.08h0V128h0a4.92,4.92,0,0,1-4.92,4.92h0A4.93,4.93,0,0,1,153.42,128ZM99.23,117.15a4.91,4.91,0,0,1-1.81-6.72h0a4.91,4.91,0,0,1,6.71-1.81h0a4.9,4.9,0,0,1,1.81,6.72h0a4.88,4.88,0,0,1-4.27,2.48h0A4.83,4.83,0,0,1,99.23,117.15Zm50.75-2a4.9,4.9,0,0,1,1.77-6.73h0a4.93,4.93,0,0,1,6.73,1.77h0a4.9,4.9,0,0,1-1.77,6.73h0a4.9,4.9,0,0,1-2.46.67h0A4.87,4.87,0,0,1,150,115.2Zm-41.48-11a4.92,4.92,0,0,1,1.78-6.73h0A4.93,4.93,0,0,1,117,99.29h0a4.91,4.91,0,0,1-1.77,6.71h0a4.73,4.73,0,0,1-2.48.69h0A4.9,4.9,0,0,1,108.5,104.23Zm32.12,1.69a4.91,4.91,0,0,1-1.81-6.71h0a4.91,4.91,0,0,1,6.72-1.81h0a4.9,4.9,0,0,1,1.81,6.71h0a4.92,4.92,0,0,1-4.25,2.48h0A4.83,4.83,0,0,1,140.62,105.92ZM123,97.67a4.92,4.92,0,0,1,4.9-4.94h0a4.93,4.93,0,0,1,5,4.9h0a4.93,4.93,0,0,1-4.91,5h0A4.93,4.93,0,0,1,123,97.67Z"/><path class="cls-3" d="M128,163.27a5,5,0,0,1-4.94-4.92h0a4.93,4.93,0,0,1,4.92-4.93h0a4.91,4.91,0,0,1,4.94,4.91h0a5,5,0,0,1-4.92,4.94Zm-17.65-4.71a4.94,4.94,0,0,1-1.79-6.73h0a4.92,4.92,0,0,1,6.72-1.79h0a4.9,4.9,0,0,1,1.81,6.71h0a4.87,4.87,0,0,1-4.27,2.46h0A4.86,4.86,0,0,1,110.39,158.56Zm28.54-1.83a4.89,4.89,0,0,1,1.79-6.71h0a4.92,4.92,0,0,1,6.74,1.77h0a4.94,4.94,0,0,1-1.8,6.73h0a4.83,4.83,0,0,1-2.46.67h0A4.91,4.91,0,0,1,138.93,156.73Zm-41.43-11A4.92,4.92,0,0,1,99.27,139h0a4.94,4.94,0,0,1,6.73,1.79h0a4.93,4.93,0,0,1-1.79,6.74h0a4.84,4.84,0,0,1-2.46.67h0A4.9,4.9,0,0,1,97.5,145.68Zm54.33,1.74A4.91,4.91,0,0,1,150,140.7h0a4.93,4.93,0,0,1,6.73-1.81h0a4.94,4.94,0,0,1,1.79,6.73h0a4.91,4.91,0,0,1-4.27,2.47h0A4.83,4.83,0,0,1,151.83,147.42Zm-59.1-19.36a4.92,4.92,0,0,1,4.92-4.92h0a4.91,4.91,0,0,1,4.93,4.92h0A4.91,4.91,0,0,1,97.67,133h0A4.94,4.94,0,0,1,92.73,128.06Zm60.69-.06v-.06h0v-.06h0a4.92,4.92,0,0,1,4.89-4.94h0a4.94,4.94,0,0,1,5,4.9h0v.08h0V128h0a4.92,4.92,0,0,1-4.92,4.92h0A4.93,4.93,0,0,1,153.42,128ZM99.23,117.15a4.91,4.91,0,0,1-1.81-6.72h0a4.91,4.91,0,0,1,6.71-1.81h0a4.9,4.9,0,0,1,1.81,6.72h0a4.88,4.88,0,0,1-4.27,2.48h0A4.83,4.83,0,0,1,99.23,117.15Zm50.75-2a4.9,4.9,0,0,1,1.77-6.73h0a4.93,4.93,0,0,1,6.73,1.77h0a4.9,4.9,0,0,1-1.77,6.73h0a4.9,4.9,0,0,1-2.46.67h0A4.87,4.87,0,0,1,150,115.2Zm-41.48-11a4.92,4.92,0,0,1,1.78-6.73h0A4.93,4.93,0,0,1,117,99.29h0a4.91,4.91,0,0,1-1.77,6.71h0a4.73,4.73,0,0,1-2.48.69h0A4.9,4.9,0,0,1,108.5,104.23Zm32.12,1.69a4.91,4.91,0,0,1-1.81-6.71h0a4.91,4.91,0,0,1,6.72-1.81h0a4.9,4.9,0,0,1,1.81,6.71h0a4.92,4.92,0,0,1-4.25,2.48h0A4.83,4.83,0,0,1,140.62,105.92ZM123,97.67a4.92,4.92,0,0,1,4.9-4.94h0a4.93,4.93,0,0,1,5,4.9h0a4.93,4.93,0,0,1-4.91,5h0A4.93,4.93,0,0,1,123,97.67Z"/><path class="cls-3" d="M118.67,144.31a4.91,4.91,0,0,1-1.82-6.72h0a4.92,4.92,0,0,1,6.72-1.83h0a4.92,4.92,0,0,1,1.81,6.71h0a4.88,4.88,0,0,1-4.27,2.49h0A5,5,0,0,1,118.67,144.31Zm12-1.84a4.92,4.92,0,0,1,1.79-6.73h0a4.89,4.89,0,0,1,6.71,1.77h0a4.92,4.92,0,0,1-1.77,6.74h0a5,5,0,0,1-2.48.67h0A4.92,4.92,0,0,1,130.7,142.47ZM109.21,128.1a4.91,4.91,0,0,1,4.89-4.94h0a4.93,4.93,0,0,1,5,4.9h0a4.92,4.92,0,0,1-4.9,4.94h0A4.93,4.93,0,0,1,109.21,128.1Zm27.73,0v-.2h0a4.92,4.92,0,0,1,4.86-5h0a4.94,4.94,0,0,1,5,4.86h0v0h0v.16h0V128h0a4.93,4.93,0,0,1-4.93,4.92h0A5,5,0,0,1,136.94,128.08Zm-20.2-9.53a4.94,4.94,0,0,1,1.73-6.76h0a4.91,4.91,0,0,1,6.73,1.76h0a4.89,4.89,0,0,1-1.73,6.73h0a4.81,4.81,0,0,1-2.5.69h0A4.9,4.9,0,0,1,116.74,118.55Zm15.65,1.65a4.91,4.91,0,0,1-1.87-6.69h0a4.92,4.92,0,0,1,6.72-1.87h0a4.91,4.91,0,0,1,1.85,6.71h0a4.89,4.89,0,0,1-4.28,2.5h0A4.86,4.86,0,0,1,132.39,120.2Z"/><path class="cls-3" d="M123.25,178.51a5,5,0,0,1-4.45-5.36h0a5,5,0,0,1,5.36-4.45h0a4.93,4.93,0,0,1,4.45,5.38h0a4.92,4.92,0,0,1-4.9,4.45h0A3.7,3.7,0,0,1,123.25,178.51Zm11.54-4.94a5,5,0,0,1,3.53-6h0a4.94,4.94,0,0,1,6,3.53h0a4.92,4.92,0,0,1-3.53,6h0a4.4,4.4,0,0,1-1.24.16h0A5,5,0,0,1,134.79,173.57Zm-28.53.27a4.91,4.91,0,0,1-2.34-6.55h0a4.93,4.93,0,0,1,6.57-2.33h0a4.92,4.92,0,0,1,2.33,6.56h0a4.91,4.91,0,0,1-4.45,2.82h0A4.73,4.73,0,0,1,106.26,173.84ZM150,168.51a4.93,4.93,0,0,1,1.24-6.86h0a4.94,4.94,0,0,1,6.85,1.26h0a4.93,4.93,0,0,1-1.24,6.84h0a5,5,0,0,1-2.82.88h0A4.87,4.87,0,0,1,150,168.51ZM91.9,163.66a4.94,4.94,0,0,1,0-7h0a4.94,4.94,0,0,1,7,0h0a4.92,4.92,0,0,1,0,7h0a4.88,4.88,0,0,1-3.45,1.42h0A4.94,4.94,0,0,1,91.9,163.66Zm70.58-5.12a4.92,4.92,0,0,1-1.16-6.85h0a4.91,4.91,0,0,1,6.87-1.16h0a4.89,4.89,0,0,1,1.16,6.85h0a4.89,4.89,0,0,1-4,2.07h0A5,5,0,0,1,162.48,158.54Zm-80.6-9.35a4.92,4.92,0,0,1,2.42-6.54h0a4.9,4.9,0,0,1,6.52,2.42h0a4.91,4.91,0,0,1-2.4,6.52h0a4.78,4.78,0,0,1-2.07.45h0A4.94,4.94,0,0,1,81.88,149.19Zm89-4.27a4.94,4.94,0,0,1-3.45-6h0a4.94,4.94,0,0,1,6.07-3.45h0a4.94,4.94,0,0,1,3.43,6.07h0a4.92,4.92,0,0,1-4.75,3.6h0A5.27,5.27,0,0,1,170.87,144.92ZM77.43,132.14a4.9,4.9,0,0,1,4.51-5.3h0a4.93,4.93,0,0,1,5.32,4.49h0a4.92,4.92,0,0,1-4.49,5.31h0l-.42,0h0A4.93,4.93,0,0,1,77.43,132.14Zm91.33-7.41a.25.25,0,0,0,0-.12h0v0h0a4.94,4.94,0,0,1,4.49-5.31h0a4.94,4.94,0,0,1,5.34,4.49h0v.07h0v.12h0a4.93,4.93,0,0,1-4.51,5.32h-.39A4.92,4.92,0,0,1,168.76,124.73Zm-86.27-4.08A5,5,0,0,1,79,114.59h0a4.91,4.91,0,0,1,6-3.43h0a4.93,4.93,0,0,1,3.47,6h0a5,5,0,0,1-4.77,3.62h0A4.85,4.85,0,0,1,82.49,120.65Zm82.65-9.8a4.92,4.92,0,0,1,2.4-6.54h0a5,5,0,0,1,6.54,2.42h0a4.93,4.93,0,0,1-2.4,6.52h0a4.84,4.84,0,0,1-2.07.45h0A4.88,4.88,0,0,1,165.14,110.85Zm-77.37-5.3a4.92,4.92,0,0,1-1.18-6.87h0a4.91,4.91,0,0,1,6.85-1.16h0a4.89,4.89,0,0,1,1.18,6.85h0a4.92,4.92,0,0,1-4,2.09h0A4.86,4.86,0,0,1,87.77,105.55ZM157,99.21a4.94,4.94,0,0,1,0-7h0a4.94,4.94,0,0,1,7,0h0a4.94,4.94,0,0,1,0,7h0a5,5,0,0,1-3.49,1.42h0A4.91,4.91,0,0,1,157,99.21ZM97.85,93.14a5,5,0,0,1,1.24-6.85h0a4.93,4.93,0,0,1,6.85,1.22h0a4.91,4.91,0,0,1-1.24,6.86h0a4.73,4.73,0,0,1-2.79.88h0A4.94,4.94,0,0,1,97.85,93.14ZM145.43,91a4.93,4.93,0,0,1-2.34-6.56h0a4.91,4.91,0,0,1,6.55-2.34h0A4.92,4.92,0,0,1,152,88.65h0a4.92,4.92,0,0,1-4.45,2.82h0A5.13,5.13,0,0,1,145.43,91Zm-33.85-6.07a4.9,4.9,0,0,1,3.52-6h0a4.91,4.91,0,0,1,6,3.5h0a4.92,4.92,0,0,1-3.53,6h0a4.35,4.35,0,0,1-1.24.16h0A4.94,4.94,0,0,1,111.58,84.93Zm20.16,2.35h0a4.93,4.93,0,0,1-4.45-5.36h0a4.9,4.9,0,0,1,5.36-4.45h0a4.93,4.93,0,0,1,4.47,5.34h0a4.94,4.94,0,0,1-4.89,4.49h0Z"/><path class="cls-3" d="M124.91,194.68a4.94,4.94,0,0,1-4.69-5.16h0a4.94,4.94,0,0,1,5.16-4.69h0a4.94,4.94,0,0,1,4.69,5.16h0a4.94,4.94,0,0,1-4.91,4.69h-.25Zm10.87-5.14a4.89,4.89,0,0,1,3.8-5.81h0a4.92,4.92,0,0,1,5.83,3.82h0a4.93,4.93,0,0,1-3.82,5.81h0a4.33,4.33,0,0,1-1,.1h0A4.9,4.9,0,0,1,135.78,189.54Zm-27.34,2.28a4.9,4.9,0,0,1-3.26-6.14h0a4.91,4.91,0,0,1,6.14-3.27h0a4.92,4.92,0,0,1,3.27,6.14h0a4.92,4.92,0,0,1-4.71,3.49h0A4.54,4.54,0,0,1,108.44,191.82Zm42.38-6.14a4.94,4.94,0,0,1,2.25-6.6h0a4.91,4.91,0,0,1,6.57,2.25h0a4.91,4.91,0,0,1-2.24,6.59h0a4.94,4.94,0,0,1-2.16.52h0A4.94,4.94,0,0,1,150.82,185.68ZM93.18,185a4.92,4.92,0,0,1-1.63-6.77h0a4.92,4.92,0,0,1,6.77-1.64h0a4.93,4.93,0,0,1,1.64,6.78h0a5,5,0,0,1-4.22,2.34h0A4.93,4.93,0,0,1,93.18,185Zm71.25-6.77a4.92,4.92,0,0,1,.55-7h0a4.91,4.91,0,0,1,6.93.56h0a4.9,4.9,0,0,1-.55,6.93h0a4.92,4.92,0,0,1-3.19,1.18h0A5,5,0,0,1,164.43,178.2Zm-84.3-3.69a4.94,4.94,0,0,1,.1-7h0a4.94,4.94,0,0,1,7,.12h0a4.9,4.9,0,0,1-.12,7h0a4.88,4.88,0,0,1-3.43,1.4h0A4.9,4.9,0,0,1,80.13,174.51Zm95.64-6.95a4.93,4.93,0,0,1-1.2-6.85h0a4.93,4.93,0,0,1,6.86-1.2h0a4.91,4.91,0,0,1,1.2,6.85h0a4.91,4.91,0,0,1-4,2.11h0A4.94,4.94,0,0,1,175.77,167.56Zm-105.7-6.4a4.92,4.92,0,0,1,1.81-6.71h0a4.93,4.93,0,0,1,6.73,1.81h0A4.93,4.93,0,0,1,76.78,163h0a4.9,4.9,0,0,1-2.44.65h0A4.93,4.93,0,0,1,70.07,161.16Zm114-6.71a4.9,4.9,0,0,1-2.85-6.34h0a5,5,0,0,1,6.34-2.88h0a4.94,4.94,0,0,1,2.87,6.34h0a4.91,4.91,0,0,1-4.62,3.19h0A5.16,5.16,0,0,1,184.1,154.45ZM63.63,145.72a4.91,4.91,0,0,1,3.44-6h0a4.91,4.91,0,0,1,6.05,3.42h0a4.93,4.93,0,0,1-3.43,6.07h0a5.11,5.11,0,0,1-1.32.18h0A4.93,4.93,0,0,1,63.63,145.72Zm125.28-6a4.93,4.93,0,0,1-4.35-5.44h0c0-.08,0-.14,0-.21h0a4.9,4.9,0,0,1,5.41-4.38h0a4.9,4.9,0,0,1,4.37,5.42h0v.14h0a.25.25,0,0,0,0,.12h0a4.9,4.9,0,0,1-4.88,4.37h0A5.06,5.06,0,0,1,188.91,139.68ZM61.24,129.16a4.94,4.94,0,0,1,4.85-5h0a4.93,4.93,0,0,1,5,4.84h0a4.91,4.91,0,0,1-4.85,5h-.07A4.94,4.94,0,0,1,61.24,129.16Zm123.08-9.39a4.89,4.89,0,0,1,4.16-5.57h0a4.88,4.88,0,0,1,5.57,4.15h0a4.9,4.9,0,0,1-4.16,5.57h0a4.17,4.17,0,0,1-.71.06h0A4.91,4.91,0,0,1,184.32,119.77Zm-117.6-1.3a4.91,4.91,0,0,1-3.67-5.91h0A4.92,4.92,0,0,1,69,108.9h0a4.93,4.93,0,0,1,3.66,5.93h0a4.93,4.93,0,0,1-4.8,3.78h0A4.3,4.3,0,0,1,66.72,118.47ZM180.5,106a4.93,4.93,0,0,1,2.64-6.46h0a4.93,4.93,0,0,1,6.44,2.64h0a4.93,4.93,0,0,1-2.64,6.44h0a4.55,4.55,0,0,1-1.91.4h0A5,5,0,0,1,180.5,106ZM71,103.52a4.91,4.91,0,0,1-2.07-6.63h0a4.94,4.94,0,0,1,6.66-2.07h0a4.92,4.92,0,0,1,2,6.65h0a4.92,4.92,0,0,1-4.37,2.62h0A4.74,4.74,0,0,1,71,103.52Zm102.4-9.84a4.92,4.92,0,0,1,1-6.9h0a4.94,4.94,0,0,1,6.91,1h0a4.93,4.93,0,0,1-1,6.89h0a4.89,4.89,0,0,1-3,1h0A4.91,4.91,0,0,1,173.39,93.68ZM78.87,90.13a4.92,4.92,0,0,1-.34-6.95h0a4.92,4.92,0,0,1,7-.33h0a4.93,4.93,0,0,1,.33,7h0a4.93,4.93,0,0,1-3.64,1.61h0A4.82,4.82,0,0,1,78.87,90.13Zm84.56-6.67a4.92,4.92,0,0,1-.77-6.92h0a4.91,4.91,0,0,1,6.91-.78h0a4.92,4.92,0,0,1,.77,6.93h0a4.89,4.89,0,0,1-3.84,1.85h0A4.92,4.92,0,0,1,163.43,83.46ZM89.82,79.12a4.94,4.94,0,0,1,1.39-6.83h0A4.92,4.92,0,0,1,98,73.69h0a4.9,4.9,0,0,1-1.38,6.81h0a5,5,0,0,1-2.72.83h0A5,5,0,0,1,89.82,79.12Zm61.44-3.07h0a4.94,4.94,0,0,1-2.48-6.52h0a4.92,4.92,0,0,1,6.49-2.48h0a4.92,4.92,0,0,1,2.48,6.52h0a4.87,4.87,0,0,1-4.48,2.91h0A4.79,4.79,0,0,1,151.26,76.05Zm-48.09-4.9a4.9,4.9,0,0,1,3-6.26h0a4.91,4.91,0,0,1,6.26,3h0a4.93,4.93,0,0,1-3,6.26h0a5,5,0,0,1-1.61.26h0A4.88,4.88,0,0,1,103.17,71.15Zm34.46.77a5,5,0,0,1-4-5.7h0a5,5,0,0,1,5.69-4h0a4.91,4.91,0,0,1,4,5.67h0a4.93,4.93,0,0,1-4.84,4.1h0A5.69,5.69,0,0,1,137.63,71.92Zm-19.57-5.16a4.92,4.92,0,0,1,4.53-5.3h0A4.91,4.91,0,0,1,127.88,66h0a4.91,4.91,0,0,1-4.51,5.3h0a2.61,2.61,0,0,1-.39,0h0A4.94,4.94,0,0,1,118.06,66.76Z"/><path class="cls-3" d="M123.86,211.28a4.91,4.91,0,0,1-4.66-5.16h0a4.9,4.9,0,0,1,5.16-4.67h0a4.91,4.91,0,0,1,4.66,5.16h0a4.9,4.9,0,0,1-4.9,4.67h-.26Zm11.23-5a5,5,0,0,1,4.11-5.62h0a4.94,4.94,0,0,1,5.62,4.12h0a4.92,4.92,0,0,1-4.12,5.61h0a4.93,4.93,0,0,1-.75.06h0A4.92,4.92,0,0,1,135.09,206.3Zm-27.9,2.46a4.93,4.93,0,0,1-3.55-6h0a4.94,4.94,0,0,1,6-3.54h0a4.93,4.93,0,0,1,3.54,6h0a4.94,4.94,0,0,1-4.76,3.69h0A4.35,4.35,0,0,1,107.19,208.76Zm43.51-5.48a4.91,4.91,0,0,1,2.9-6.32h0a4.93,4.93,0,0,1,6.32,2.9h0A4.91,4.91,0,0,1,157,206.2h0a5.14,5.14,0,0,1-1.72.29h0A4.91,4.91,0,0,1,150.7,203.28Zm-59.33-.35a4.94,4.94,0,0,1-2.26-6.6h0a4.91,4.91,0,0,1,6.58-2.24h0A4.88,4.88,0,0,1,98,200.66h0a4.88,4.88,0,0,1-4.41,2.76h0A5,5,0,0,1,91.37,202.93Zm74-5.75a5,5,0,0,1,1.55-6.79h0a4.94,4.94,0,0,1,6.8,1.57h0a4.92,4.92,0,0,1-1.56,6.77h0a4.77,4.77,0,0,1-2.6.75h0A4.87,4.87,0,0,1,165.38,197.18ZM77.06,194a4.88,4.88,0,0,1-.89-6.89h0a4.88,4.88,0,0,1,6.89-.89h0a4.88,4.88,0,0,1,.89,6.89h0a4.89,4.89,0,0,1-3.9,1.91h0A4.85,4.85,0,0,1,77.06,194Zm101.47-5.77a4.92,4.92,0,0,1,.16-7h0a5,5,0,0,1,7,.17h0a4.93,4.93,0,0,1-.18,7h0a5,5,0,0,1-3.4,1.36h0A4.93,4.93,0,0,1,178.53,188.24ZM64.81,182.41a4.93,4.93,0,0,1,.53-6.95h0a4.9,4.9,0,0,1,6.93.53h0a4.9,4.9,0,0,1-.51,6.93h0a4.86,4.86,0,0,1-3.21,1.2h0A5,5,0,0,1,64.81,182.41Zm124.81-5.57a4.91,4.91,0,0,1-1.24-6.86h0a4.93,4.93,0,0,1,6.85-1.22h0a4.92,4.92,0,0,1,1.24,6.86h0a5,5,0,0,1-4.06,2.1h0A4.88,4.88,0,0,1,189.62,176.84ZM55.16,168.59a4.91,4.91,0,0,1,1.89-6.7h0a4.91,4.91,0,0,1,6.69,1.91h0a4.93,4.93,0,0,1-1.89,6.7h0a5.09,5.09,0,0,1-2.4.63h0A4.9,4.9,0,0,1,55.16,168.59Zm143-5.14A4.92,4.92,0,0,1,195.6,157h0a4.93,4.93,0,0,1,6.48-2.58h0a4.93,4.93,0,0,1,2.58,6.46h0a4.92,4.92,0,0,1-4.53,3h0A5,5,0,0,1,198.18,163.45ZM48.46,153.11a5,5,0,0,1,3.21-6.19h0a5,5,0,0,1,6.19,3.23h0a4.94,4.94,0,0,1-3.21,6.17h0a5.26,5.26,0,0,1-1.5.23h0A4.93,4.93,0,0,1,48.46,153.11Zm155.43-4.51a4.9,4.9,0,0,1-3.84-5.81h0a4.93,4.93,0,0,1,5.81-3.84h0a5,5,0,0,1,3.84,5.83h0a4.94,4.94,0,0,1-4.82,3.92h0A4.16,4.16,0,0,1,203.89,148.6Zm-158.83-12a4.93,4.93,0,0,1,4.39-5.4h0a4.92,4.92,0,0,1,5.39,4.39h0a4.9,4.9,0,0,1-4.39,5.4h0a4.38,4.38,0,0,1-.51,0h0A4.9,4.9,0,0,1,45.06,136.59ZM201.53,128c0-.06,0-.12,0-.16h0c0-.06,0-.1,0-.15h0a5,5,0,0,1,4.91-5h0a4.93,4.93,0,0,1,4.94,4.91h0v.17h0V128h0a4.91,4.91,0,0,1-4.91,4.92h0A4.93,4.93,0,0,1,201.53,128Zm-152.1-2.88A4.91,4.91,0,0,1,45,119.75h0a4.91,4.91,0,0,1,5.37-4.43h0a4.93,4.93,0,0,1,4.43,5.39h0a4.92,4.92,0,0,1-4.9,4.43h0A4.1,4.1,0,0,1,49.43,125.12ZM200,112.9a4.91,4.91,0,0,1,3.81-5.83h0a4.94,4.94,0,0,1,5.83,3.82h0a5,5,0,0,1-3.83,5.83h0a5.55,5.55,0,0,1-1,.09h0A4.91,4.91,0,0,1,200,112.9Zm-148.4-3.53a4.92,4.92,0,0,1-3.23-6.16h0A4.92,4.92,0,0,1,54.53,100h0a4.93,4.93,0,0,1,3.23,6.16h0a4.91,4.91,0,0,1-4.71,3.45h0A4.75,4.75,0,0,1,51.59,109.37Zm143.9-10.63h0A4.91,4.91,0,0,1,198,92.26h0a4.94,4.94,0,0,1,6.48,2.54h0a4.91,4.91,0,0,1-2.56,6.48h0a5,5,0,0,1-2,.41h0A4.91,4.91,0,0,1,195.49,98.74ZM56.91,94.38A4.92,4.92,0,0,1,55,87.69h0a4.93,4.93,0,0,1,6.7-1.93h0a5,5,0,0,1,1.93,6.7h0A4.93,4.93,0,0,1,59.29,95h0A4.89,4.89,0,0,1,56.91,94.38Zm131.31-8.62a4.88,4.88,0,0,1,1.2-6.85h0a4.91,4.91,0,0,1,6.85,1.2h0a4.91,4.91,0,0,1-1.2,6.85h0a4.86,4.86,0,0,1-2.83.89h0A4.89,4.89,0,0,1,188.22,85.76Zm-123.08-5a4.91,4.91,0,0,1-.55-6.93h0a4.93,4.93,0,0,1,7-.56h0a4.91,4.91,0,0,1,.53,6.94h0A4.87,4.87,0,0,1,68.33,82h0A4.93,4.93,0,0,1,65.14,80.78Zm113.33-6.26a5,5,0,0,1-.2-7h0a5,5,0,0,1,7-.19h0a4.94,4.94,0,0,1,.2,7h0a5,5,0,0,1-3.58,1.53h0A4.93,4.93,0,0,1,178.47,74.52ZM75.93,69.1a4.92,4.92,0,0,1,.85-6.91h0a4.93,4.93,0,0,1,6.91.85h0A4.92,4.92,0,0,1,82.83,70h0a4.79,4.79,0,0,1-3,1h0A4.93,4.93,0,0,1,75.93,69.1Zm90.75-3.66h0a4.91,4.91,0,0,1-1.59-6.78h0a4.93,4.93,0,0,1,6.77-1.59h0a4.91,4.91,0,0,1,1.6,6.77h0a4.92,4.92,0,0,1-4.19,2.35h0A4.84,4.84,0,0,1,166.68,65.44ZM88.83,59.82a5,5,0,0,1,2.23-6.61h0a4.92,4.92,0,0,1,6.59,2.24h0a4.92,4.92,0,0,1-2.22,6.6h0a5.23,5.23,0,0,1-2.19.51h0A4.92,4.92,0,0,1,88.83,59.82Zm64.49-.88a4.92,4.92,0,0,1-2.93-6.32h0a4.93,4.93,0,0,1,6.32-2.94h0A4.92,4.92,0,0,1,159.63,56h0A4.94,4.94,0,0,1,155,59.23h0A5,5,0,0,1,153.32,58.94Zm-50-5.61a4.93,4.93,0,0,1,3.53-6h0a4.93,4.93,0,0,1,6,3.51h0a4.93,4.93,0,0,1-3.53,6h0a4.43,4.43,0,0,1-1.24.18h0A5,5,0,0,1,103.34,53.33Zm35.57,1.93h0a5,5,0,0,1-4.16-5.6h0a5,5,0,0,1,5.62-4.15h0a4.94,4.94,0,0,1,4.13,5.61h0a4.91,4.91,0,0,1-4.86,4.2h0A4.49,4.49,0,0,1,138.91,55.26Zm-20-5.36a5,5,0,0,1,4.67-5.18h0a4.94,4.94,0,0,1,5.18,4.67h0A5,5,0,0,1,124,54.57h-.25A4.94,4.94,0,0,1,118.86,49.9Z"/><path class="cls-3" d="M119.83,228.08a4.92,4.92,0,0,1-4.51-5.3h0a4.91,4.91,0,0,1,5.3-4.51h0a4.93,4.93,0,0,1,4.51,5.3h0a4.94,4.94,0,0,1-4.91,4.53h0A2.55,2.55,0,0,1,119.83,228.08Zm11.24-4.51a4.93,4.93,0,0,1,4.51-5.32h0a4.9,4.9,0,0,1,5.3,4.49h0a4.9,4.9,0,0,1-4.49,5.32h0a2.88,2.88,0,0,1-.41,0h0A4.94,4.94,0,0,1,131.07,223.57Zm-27.61,1.81,0,0h0a4.93,4.93,0,0,1-3.58-6h0a4.89,4.89,0,0,1,6-3.56h0a4.92,4.92,0,0,1,3.58,6h0a5,5,0,0,1-4.76,3.73h0A5.19,5.19,0,0,1,103.46,225.38Zm43.29-3.61a4.92,4.92,0,0,1,3.56-6h0a4.92,4.92,0,0,1,6,3.56h0a4.93,4.93,0,0,1-3.57,6h0a5,5,0,0,1-1.22.14h0A4.93,4.93,0,0,1,146.75,221.77Zm-59-1.75a4.93,4.93,0,0,1-2.54-6.48h0a4.94,4.94,0,0,1,6.5-2.54h0a4.94,4.94,0,0,1,2.54,6.48h0a5,5,0,0,1-4.53,3h0A5,5,0,0,1,87.77,220Zm74.16-2.6a4.92,4.92,0,0,1,2.52-6.5h0a5,5,0,0,1,6.5,2.52h0a4.94,4.94,0,0,1-2.54,6.5h0a4.92,4.92,0,0,1-2,.42h0A5,5,0,0,1,161.93,217.42Zm-88.75-5.27a4.93,4.93,0,0,1-1.42-6.82h0a4.91,4.91,0,0,1,6.81-1.44h0A4.92,4.92,0,0,1,80,210.71h0a4.93,4.93,0,0,1-4.12,2.22h0A5,5,0,0,1,73.18,212.15Zm103-1.54a4.89,4.89,0,0,1,1.42-6.81h0a4.9,4.9,0,0,1,6.81,1.41h0A4.94,4.94,0,0,1,183,212h0a4.88,4.88,0,0,1-2.7.8h0A4.88,4.88,0,0,1,176.17,210.61ZM60.1,202a4.89,4.89,0,0,1-.29-7h0a4.9,4.9,0,0,1,7-.29h0a4.92,4.92,0,0,1,.29,6.95h0a4.88,4.88,0,0,1-3.62,1.59h0A4.89,4.89,0,0,1,60.1,202Zm129-.41a4.92,4.92,0,0,1,.27-7h0a5,5,0,0,1,7,.27h0a4.94,4.94,0,0,1-.29,7h0a4.9,4.9,0,0,1-3.33,1.32h0A4.86,4.86,0,0,1,189.09,201.55ZM48.86,189.79h0a4.92,4.92,0,0,1,.84-6.91h0a4.93,4.93,0,0,1,6.92.85h0a4.92,4.92,0,0,1-.83,6.91h0a4.88,4.88,0,0,1-3,1h0A4.87,4.87,0,0,1,48.86,189.79Zm151.49.71a4.92,4.92,0,0,1-.85-6.91h0a4.94,4.94,0,0,1,6.91-.87h0a4.93,4.93,0,0,1,.87,6.92h0a4.87,4.87,0,0,1-3.88,1.91h0A5,5,0,0,1,200.35,190.5ZM39.76,176a4.91,4.91,0,0,1,2-6.68h0a4.9,4.9,0,0,1,6.67,2h0a4.93,4.93,0,0,1-2,6.68h0a5.11,5.11,0,0,1-2.35.59h0A4.91,4.91,0,0,1,39.76,176Zm169.9,1.81a4.93,4.93,0,0,1-2-6.67h0a4.9,4.9,0,0,1,6.67-2h0a4.91,4.91,0,0,1,2,6.67h0a5,5,0,0,1-4.33,2.58h0A4.94,4.94,0,0,1,209.66,177.76Zm-176.6-17h0a4.93,4.93,0,0,1,3.06-6.26h0a4.92,4.92,0,0,1,6.26,3.05h0a4.94,4.94,0,0,1-3.05,6.26h0a5.13,5.13,0,0,1-1.62.26h0A4.94,4.94,0,0,1,33.06,160.79Zm183.69,2.85a4.93,4.93,0,0,1-3.07-6.26h0a4.93,4.93,0,0,1,6.26-3h0a4.94,4.94,0,0,1,3.06,6.26h0a4.92,4.92,0,0,1-4.65,3.33h0A5,5,0,0,1,216.75,163.64ZM29,144.72A4.94,4.94,0,0,1,33,139.05h0a4.92,4.92,0,0,1,5.67,4h0a4.93,4.93,0,0,1-4,5.68h0a4.59,4.59,0,0,1-.81.07h0A5,5,0,0,1,29,144.72Zm192.43,3.84a4.91,4.91,0,0,1-4.06-5.65h0a4.91,4.91,0,0,1,5.66-4.06h0a4.89,4.89,0,0,1,4.05,5.65h0a4.9,4.9,0,0,1-4.84,4.12h0A5.52,5.52,0,0,1,221.4,148.56ZM27.59,128.22a4.94,4.94,0,0,1,4.9-5h0a4.94,4.94,0,0,1,4.95,4.93h0a4.91,4.91,0,0,1-4.91,4.92h0A4.91,4.91,0,0,1,27.59,128.22Zm191-.22v-.2h0v-.19h0a4.92,4.92,0,0,1,4.9-5h0a4.92,4.92,0,0,1,4.94,4.91h0v.21h0V128h0a4.92,4.92,0,0,1-4.92,4.92h0A4.92,4.92,0,0,1,218.57,128ZM33,117.35a4.92,4.92,0,0,1-4.06-5.66h0a4.91,4.91,0,0,1,5.65-4h0a4.91,4.91,0,0,1,4.06,5.65h0a4.93,4.93,0,0,1-4.85,4.12h0A5.39,5.39,0,0,1,33,117.35Zm184.32-4.63a4.91,4.91,0,0,1,4-5.69h0a5,5,0,0,1,5.69,4h0a4.93,4.93,0,0,1-4,5.68h0a5.93,5.93,0,0,1-.83.07h0A4.91,4.91,0,0,1,217.29,112.72ZM36,101.85a4.91,4.91,0,0,1-3.07-6.24h0a5,5,0,0,1,6.24-3.08h0a4.93,4.93,0,0,1,3.07,6.27h0a5,5,0,0,1-4.67,3.32h0A4.43,4.43,0,0,1,36,101.85Zm177.56-3.61a5,5,0,0,1,3-6.28h0a4.94,4.94,0,0,1,6.26,3h0a4.9,4.9,0,0,1-3,6.26h0a4.87,4.87,0,0,1-1.62.27h0A4.92,4.92,0,0,1,213.56,98.24Zm-172-11.16a4.93,4.93,0,0,1-2-6.68h0a4.93,4.93,0,0,1,6.68-2h0a4.91,4.91,0,0,1,2,6.66h0a4.93,4.93,0,0,1-4.34,2.6h0A5.11,5.11,0,0,1,41.55,87.08Zm166-2.5a4.91,4.91,0,0,1,2-6.68h0a4.92,4.92,0,0,1,6.67,1.95h0a4.93,4.93,0,0,1-2,6.7h0a5,5,0,0,1-2.34.59h0A4.94,4.94,0,0,1,207.5,84.58Zm-158-11.15a4.92,4.92,0,0,1-.87-6.91h0a4.94,4.94,0,0,1,6.91-.89h0a4.93,4.93,0,0,1,.87,6.92h0a4.89,4.89,0,0,1-3.9,1.91h0A5,5,0,0,1,49.47,73.43Zm149.8-1.32a4.93,4.93,0,0,1,.82-6.91h0A4.91,4.91,0,0,1,207,66h0a4.9,4.9,0,0,1-.83,6.91h0a4.88,4.88,0,0,1-3,1h0A4.88,4.88,0,0,1,199.27,72.11ZM59.53,61.26a4.92,4.92,0,0,1,.28-7h0a4.94,4.94,0,0,1,7,.28h0a4.9,4.9,0,0,1-.28,7h0a4.88,4.88,0,0,1-3.35,1.32h0A4.86,4.86,0,0,1,59.53,61.26Zm129.57-.12a4.93,4.93,0,0,1-.31-7h0a4.92,4.92,0,0,1,7-.31h0a4.92,4.92,0,0,1,.32,6.95h0a4.93,4.93,0,0,1-3.65,1.59h0A4.86,4.86,0,0,1,189.1,61.14ZM71.44,50.9a5,5,0,0,1,1.4-6.83h0a4.91,4.91,0,0,1,6.82,1.42h0a4.93,4.93,0,0,1-1.4,6.81h0a4.87,4.87,0,0,1-2.7.81h0A4.89,4.89,0,0,1,71.44,50.9ZM177.27,52h0a4.94,4.94,0,0,1-1.44-6.82h0a4.93,4.93,0,0,1,6.8-1.43h0a4.92,4.92,0,0,1,1.45,6.81h0A4.9,4.9,0,0,1,180,52.8h0A4.81,4.81,0,0,1,177.27,52Zm-92.4-9.36a4.91,4.91,0,0,1,2.52-6.49h0a4.89,4.89,0,0,1,6.48,2.5h0a4.91,4.91,0,0,1-2.5,6.49h0a4.71,4.71,0,0,1-2,.44h0A4.93,4.93,0,0,1,84.87,42.63Zm79.23,2.29a4.93,4.93,0,0,1-2.54-6.48h0A4.92,4.92,0,0,1,168,35.88h0a4.93,4.93,0,0,1,2.54,6.48h0a4.93,4.93,0,0,1-4.51,3h0A5.05,5.05,0,0,1,164.1,44.92ZM99.5,36.71a5,5,0,0,1,3.55-6h0a4.93,4.93,0,0,1,6,3.56h0a4.91,4.91,0,0,1-3.55,6h0a5.24,5.24,0,0,1-1.22.16h0A4.94,4.94,0,0,1,99.5,36.71Zm50.44,3.4a4.93,4.93,0,0,1-3.59-6h0a4.94,4.94,0,0,1,6-3.61h0a4.93,4.93,0,0,1,3.58,6h0a4.91,4.91,0,0,1-4.76,3.74h0A5,5,0,0,1,149.94,40.11Zm-35-6.83a5,5,0,0,1,4.49-5.34h0a4.94,4.94,0,0,1,5.32,4.49h0a4.9,4.9,0,0,1-4.49,5.32h0a3.24,3.24,0,0,1-.43,0h0A4.92,4.92,0,0,1,114.9,33.28Zm20.29,4.43h0a4.92,4.92,0,0,1-4.53-5.3h0a5,5,0,0,1,5.3-4.53h0a5,5,0,0,1,4.53,5.3h0a4.94,4.94,0,0,1-4.91,4.55h0A2.55,2.55,0,0,1,135.19,37.71Z"/><path class="cls-3" d="M128.12,244.34a4.93,4.93,0,0,1-4.93-4.92h0a4.91,4.91,0,0,1,4.93-4.92h0a4.93,4.93,0,0,1,4.92,4.92h0a4.92,4.92,0,0,1-4.92,4.92Zm-16.54-1.16a4.92,4.92,0,0,1-4.2-5.55h0a4.92,4.92,0,0,1,5.57-4.18h0a4.93,4.93,0,0,1,4.2,5.56h0a4.93,4.93,0,0,1-4.88,4.23h0A4.11,4.11,0,0,1,111.58,243.18ZM139.09,239a4.92,4.92,0,0,1,4.17-5.58h0a4.93,4.93,0,0,1,5.58,4.18h0a4.92,4.92,0,0,1-4.18,5.57h0c-.24,0-.47,0-.71,0h0A4.92,4.92,0,0,1,139.09,239Zm-43.74.7a4.91,4.91,0,0,1-3.35-6.1h0a4.92,4.92,0,0,1,6.11-3.35h0a4.92,4.92,0,0,1,3.34,6.11h0a4.9,4.9,0,0,1-4.72,3.54h0A4.8,4.8,0,0,1,95.35,239.69Zm59.41-3.4a4.93,4.93,0,0,1,3.33-6.11h0a4.93,4.93,0,0,1,6.12,3.33h0a4.93,4.93,0,0,1-3.34,6.13h0a6,6,0,0,1-1.38.19h0A4.94,4.94,0,0,1,154.76,236.29Zm-75-2.38a4.91,4.91,0,0,1-2.44-6.52h0A4.91,4.91,0,0,1,83.87,225h0a5,5,0,0,1,2.44,6.53h0a5,5,0,0,1-4.49,2.88h0A5,5,0,0,1,79.79,233.91Zm90.1-2.51a4.92,4.92,0,0,1,2.44-6.53h0a4.9,4.9,0,0,1,6.51,2.42h0a4.93,4.93,0,0,1-2.42,6.54h0a5.12,5.12,0,0,1-2,.43h0A4.94,4.94,0,0,1,169.89,231.4ZM65.22,226a5,5,0,0,1-1.5-6.81h0a4.93,4.93,0,0,1,6.82-1.48h0A4.9,4.9,0,0,1,72,224.47h0a4.87,4.87,0,0,1-4.13,2.27h0A5,5,0,0,1,65.22,226Zm118.94-1.6a4.94,4.94,0,0,1,1.46-6.81h0a4.94,4.94,0,0,1,6.81,1.48h0a4.93,4.93,0,0,1-1.47,6.81h0a4.91,4.91,0,0,1-2.66.79h0A4.91,4.91,0,0,1,184.16,224.37ZM51.93,216a4.92,4.92,0,0,1-.51-7h0a4.94,4.94,0,0,1,6.95-.49h0a4.9,4.9,0,0,1,.49,6.93h0a4.86,4.86,0,0,1-3.72,1.72h0A4.85,4.85,0,0,1,51.93,216Zm145.35-.63a4.91,4.91,0,0,1,.49-6.93h0a4.92,4.92,0,0,1,6.95.48h0a4.94,4.94,0,0,1-.49,6.95h0a5,5,0,0,1-3.23,1.2h0A4.89,4.89,0,0,1,197.28,215.39ZM40.19,204.31a4.91,4.91,0,0,1,.47-6.93h0a4.93,4.93,0,0,1,7,.47h0a4.94,4.94,0,0,1-.5,7h0a4.87,4.87,0,0,1-3.23,1.2h0A4.88,4.88,0,0,1,40.19,204.31Zm168.8.35a4.93,4.93,0,0,1-.47-6.95h0a4.93,4.93,0,0,1,6.95-.49h0a4.92,4.92,0,0,1,.5,6.95h0a4.92,4.92,0,0,1-3.73,1.69h0A5,5,0,0,1,209,204.66ZM30.21,191.05a4.91,4.91,0,0,1,1.46-6.79h0a4.91,4.91,0,0,1,6.81,1.46h0A4.89,4.89,0,0,1,37,192.51h0a4.79,4.79,0,0,1-2.66.81h0A4.93,4.93,0,0,1,30.21,191.05Zm188.89,1.3a4.9,4.9,0,0,1-1.48-6.79h0a4.92,4.92,0,0,1,6.81-1.48h0a4.9,4.9,0,0,1,1.46,6.8h0a4.91,4.91,0,0,1-4.14,2.26h0A4.82,4.82,0,0,1,219.1,192.35ZM22.23,176.52A4.93,4.93,0,0,1,24.65,170h0a4.93,4.93,0,0,1,6.52,2.43h0a4.91,4.91,0,0,1-2.4,6.53h0a5.1,5.1,0,0,1-2.07.46h0A4.91,4.91,0,0,1,22.23,176.52Zm205.12,2.23a4.93,4.93,0,0,1-2.44-6.52h0a4.92,4.92,0,0,1,6.53-2.44h0a5,5,0,0,1,2.43,6.53h0a5,5,0,0,1-4.49,2.88h0A5.07,5.07,0,0,1,227.35,178.75ZM16.4,161a4.93,4.93,0,0,1,3.33-6.12h0a4.93,4.93,0,0,1,6.11,3.33h0a4.92,4.92,0,0,1-3.33,6.12h0a4.7,4.7,0,0,1-1.38.2h0A4.92,4.92,0,0,1,16.4,161Zm217.15,3.12a4.93,4.93,0,0,1-3.33-6.11h0a4.91,4.91,0,0,1,6.11-3.35h0a5,5,0,0,1,3.35,6.11h0a5,5,0,0,1-4.73,3.54h0A5.19,5.19,0,0,1,233.55,164.1ZM12.86,144.78A4.92,4.92,0,0,1,17,139.2h0a4.94,4.94,0,0,1,5.58,4.16h0a4.9,4.9,0,0,1-4.18,5.57h0a4.17,4.17,0,0,1-.71.06h0A4.92,4.92,0,0,1,12.86,144.78Zm224.75,3.94a4.92,4.92,0,0,1-4.18-5.58h0A4.94,4.94,0,0,1,239,139h0a4.94,4.94,0,0,1,4.17,5.57h0a4.94,4.94,0,0,1-4.88,4.24h0A4.11,4.11,0,0,1,237.61,148.72ZM11.66,128.24a4.94,4.94,0,0,1,4.9-5h0a4.94,4.94,0,0,1,4.94,4.93h0a4.91,4.91,0,0,1-4.9,4.92h0A4.9,4.9,0,0,1,11.66,128.24ZM234.5,128h0v-.18h0v-.27h0a4.94,4.94,0,0,1,4.9-5h0a4.93,4.93,0,0,1,4.94,4.91h0v.25h0V128h0a4.92,4.92,0,0,1-4.92,4.92h0A4.92,4.92,0,0,1,234.5,128ZM17,117.25a5,5,0,0,1-4.2-5.56h0a5,5,0,0,1,5.57-4.19h0a4.93,4.93,0,0,1,4.2,5.55h0a4.91,4.91,0,0,1-4.87,4.24h0A4,4,0,0,1,17,117.25Zm216.39-4.85a4.9,4.9,0,0,1,4.16-5.57h0A4.9,4.9,0,0,1,243.1,111h0a4.92,4.92,0,0,1-4.15,5.57h0a4.34,4.34,0,0,1-.71.06h0A4.92,4.92,0,0,1,233.37,112.4ZM19.61,101.57a4.92,4.92,0,0,1-3.34-6.1h0a4.9,4.9,0,0,1,6.1-3.35h0a4.91,4.91,0,0,1,3.35,6.09h0A4.94,4.94,0,0,1,21,101.77h0A5.68,5.68,0,0,1,19.61,101.57Zm210.48-4a4.94,4.94,0,0,1,3.32-6.13h0a4.94,4.94,0,0,1,6.13,3.33h0a4.93,4.93,0,0,1-3.33,6.12h0a4.84,4.84,0,0,1-1.4.2h0A4.94,4.94,0,0,1,230.09,97.58ZM24.48,86.41A4.91,4.91,0,0,1,22,79.89h0a4.91,4.91,0,0,1,6.51-2.44h0A4.93,4.93,0,0,1,31,84h0a5,5,0,0,1-4.49,2.89h0A4.9,4.9,0,0,1,24.48,86.41Zm200.25-3a4.94,4.94,0,0,1,2.4-6.54h0a4.93,4.93,0,0,1,6.54,2.4h0a4.93,4.93,0,0,1-2.4,6.54h0a4.93,4.93,0,0,1-2.07.45h0A4.94,4.94,0,0,1,224.73,83.38ZM31.45,72.11A4.89,4.89,0,0,1,30,65.32h0a4.93,4.93,0,0,1,6.8-1.5h0a4.93,4.93,0,0,1,1.49,6.8h0a4.94,4.94,0,0,1-4.15,2.28h0A4.93,4.93,0,0,1,31.45,72.11Zm186-2a4.94,4.94,0,0,1,1.44-6.82h0a4.91,4.91,0,0,1,6.81,1.46h0a4.92,4.92,0,0,1-1.45,6.81h0a5,5,0,0,1-2.66.79h0A4.91,4.91,0,0,1,217.4,70.09ZM40.41,59a4.9,4.9,0,0,1-.51-7h0a4.91,4.91,0,0,1,6.93-.51h0a4.91,4.91,0,0,1,.51,7h0a4.91,4.91,0,0,1-3.72,1.71h0A4.86,4.86,0,0,1,40.41,59Zm167.84-1a4.92,4.92,0,0,1,.47-6.95h0a4.9,4.9,0,0,1,6.93.48h0a4.93,4.93,0,0,1-.45,7h0a5,5,0,0,1-3.25,1.2h0A4.83,4.83,0,0,1,208.25,58ZM51.12,47.2a4.93,4.93,0,0,1,.47-7h0a4.93,4.93,0,0,1,6.95.49h0a4.91,4.91,0,0,1-.49,6.93h0a4.77,4.77,0,0,1-3.23,1.23h0A4.9,4.9,0,0,1,51.12,47.2Zm146.35.06a4.91,4.91,0,0,1-.53-6.93h0a4.93,4.93,0,0,1,6.95-.53h0a5,5,0,0,1,.52,7h0a5,5,0,0,1-3.75,1.71h0A4.85,4.85,0,0,1,197.47,47.26ZM63.37,37.08a4.93,4.93,0,0,1,1.46-6.81h0a4.92,4.92,0,0,1,6.81,1.45h0a4.93,4.93,0,0,1-1.46,6.82h0a4.9,4.9,0,0,1-2.65.79h0A5,5,0,0,1,63.37,37.08ZM185.29,38.2a4.91,4.91,0,0,1-1.5-6.81h0a4.93,4.93,0,0,1,6.79-1.5h0a5,5,0,0,1,1.5,6.82h0A5,5,0,0,1,187.92,39h0A4.93,4.93,0,0,1,185.29,38.2ZM77,28.81a4.93,4.93,0,0,1,2.4-6.54h0a4.93,4.93,0,0,1,6.54,2.42h0a4.92,4.92,0,0,1-2.42,6.52h0a4.71,4.71,0,0,1-2,.46h0A4.93,4.93,0,0,1,77,28.81Zm95,2.15a4.94,4.94,0,0,1-2.46-6.52h0A4.92,4.92,0,0,1,176,22h0a4.92,4.92,0,0,1,2.46,6.51h0a4.93,4.93,0,0,1-4.49,2.9h0A5,5,0,0,1,171.93,31ZM91.57,22.55a4.94,4.94,0,0,1,3.33-6.13h0A5,5,0,0,1,101,19.75h0a5,5,0,0,1-3.33,6.13h0a5.24,5.24,0,0,1-1.4.19h0A4.92,4.92,0,0,1,91.57,22.55Zm66.11,3.13a4.92,4.92,0,0,1-3.37-6.09h0a4.93,4.93,0,0,1,6.1-3.36h0a4.92,4.92,0,0,1,3.37,6.1h0a4.94,4.94,0,0,1-4.73,3.55h0A4.64,4.64,0,0,1,157.68,25.68ZM107,18.45a4.91,4.91,0,0,1,4.15-5.59h0A5,5,0,0,1,116.68,17h0a4.91,4.91,0,0,1-4.16,5.58h0a4.17,4.17,0,0,1-.71.06h0A4.93,4.93,0,0,1,107,18.45Zm35.88,4.06a4.91,4.91,0,0,1-4.2-5.55h0a4.94,4.94,0,0,1,5.56-4.2h0a4.92,4.92,0,0,1,4.19,5.57h0a4.94,4.94,0,0,1-4.86,4.24h0A3.93,3.93,0,0,1,142.83,22.51Zm-15.16-1a4.91,4.91,0,0,1-4.93-4.92h0a4.89,4.89,0,0,1,4.9-4.92h0a4.9,4.9,0,0,1,4.93,4.9h0a4.92,4.92,0,0,1-4.9,4.94Zm0-9.84Z"/></svg>