<?xml version="1.0" encoding="utf-8"?>
<!-- Generator: Adobe Illustrator 16.0.0, SVG Export Plug-In . SVG Version: 6.00 Build 0)  -->
<!DOCTYPE svg PUBLIC "-//W3C//DTD SVG 1.1//EN" "http://www.w3.org/Graphics/SVG/1.1/DTD/svg11.dtd">
<svg version="1.1" id="Layer_1" xmlns="http://www.w3.org/2000/svg" xmlns:xlink="http://www.w3.org/1999/xlink" x="0px" y="0px"
	 width="200px" height="100px" viewBox="-50 25 200 100" enable-background="new -50 25 200 100" xml:space="preserve">
<g>
	<g opacity="0.4">
		<path fill="#FFFFFF" d="M-23.44,37.662c0,14.543,0,61.808,0,61.808L-7.015,120c0,0,25.664,0,28.059,0s2.394-3.08,2.394-3.08
			s0-64.886,0.001-79.258C23.44,26.82-23.44,28.092-23.44,37.662z M-13.174,91.049c-1.702,0-3.08-1.379-3.08-3.08
			s1.378-3.08,3.08-3.08c1.701,0,3.08,1.379,3.08,3.08S-11.473,91.049-13.174,91.049z M-13.174,69.138
			c-1.702,0-3.08-1.379-3.08-3.08c0-1.701,1.378-3.08,3.08-3.08c1.701,0,3.08,1.379,3.08,3.08
			C-10.094,67.759-11.473,69.138-13.174,69.138z M-13.174,47.286c-1.702,0-3.08-1.377-3.08-3.079c0-1.703,1.378-3.082,3.08-3.082
			c1.701,0,3.08,1.379,3.08,3.082C-10.094,45.907-11.473,47.286-13.174,47.286z M-0.095,100.923c-1.702,0-3.08-1.38-3.08-3.08
			c0-1.701,1.378-3.081,3.08-3.081c1.702,0,3.08,1.38,3.08,3.081C2.984,99.543,1.606,100.923-0.095,100.923z M-0.095,80.435
			c-1.702,0-3.08-1.378-3.08-3.08c0-1.7,1.378-3.081,3.08-3.081c1.702,0,3.08,1.38,3.08,3.081
			C2.984,79.056,1.606,80.435-0.095,80.435z M-0.095,58.092c-1.702,0-3.08-1.379-3.08-3.08c0-1.702,1.378-3.081,3.08-3.081
			c1.702,0,3.08,1.379,3.08,3.081C2.984,56.712,1.606,58.092-0.095,58.092z M13.059,112.548c-1.7,0-3.08-1.379-3.08-3.079
			c0-1.701,1.38-3.081,3.08-3.081c1.701,0,3.081,1.38,3.081,3.081C16.14,111.169,14.76,112.548,13.059,112.548z M13.059,91.049
			c-1.7,0-3.08-1.379-3.08-3.08s1.38-3.08,3.08-3.08c1.701,0,3.081,1.379,3.081,3.08S14.76,91.049,13.059,91.049z M13.059,69.138
			c-1.7,0-3.08-1.379-3.08-3.08c0-1.701,1.38-3.08,3.08-3.08c1.701,0,3.081,1.379,3.081,3.08
			C16.14,67.759,14.76,69.138,13.059,69.138z M13.059,47.286c-1.7,0-3.08-1.377-3.08-3.079c0-1.703,1.38-3.082,3.08-3.082
			c1.701,0,3.081,1.379,3.081,3.082C16.14,45.907,14.76,47.286,13.059,47.286z"/>
	</g>
	<g>
		<path fill="none" stroke="#FFFFFF" stroke-width="2" stroke-miterlimit="10" d="M-23.44,37.662c0,14.543,0,61.808,0,61.808
			L-7.015,120c0,0,25.664,0,28.059,0s2.394-3.08,2.394-3.08s0-64.886,0.001-79.258C23.44,26.82-23.44,28.092-23.44,37.662z
			 M-13.174,91.049c-1.702,0-3.08-1.379-3.08-3.08s1.378-3.08,3.08-3.08c1.701,0,3.08,1.379,3.08,3.08S-11.473,91.049-13.174,91.049
			z M-13.174,69.138c-1.702,0-3.08-1.379-3.08-3.08c0-1.701,1.378-3.08,3.08-3.08c1.701,0,3.08,1.379,3.08,3.08
			C-10.094,67.759-11.473,69.138-13.174,69.138z M-13.174,47.286c-1.702,0-3.08-1.377-3.08-3.079c0-1.703,1.378-3.082,3.08-3.082
			c1.701,0,3.08,1.379,3.08,3.082C-10.094,45.907-11.473,47.286-13.174,47.286z M-0.095,100.923c-1.702,0-3.08-1.38-3.08-3.08
			c0-1.701,1.378-3.081,3.08-3.081c1.702,0,3.08,1.38,3.08,3.081C2.984,99.543,1.606,100.923-0.095,100.923z M-0.095,80.435
			c-1.702,0-3.08-1.378-3.08-3.08c0-1.7,1.378-3.081,3.08-3.081c1.702,0,3.08,1.38,3.08,3.081
			C2.984,79.056,1.606,80.435-0.095,80.435z M-0.095,58.092c-1.702,0-3.08-1.379-3.08-3.08c0-1.702,1.378-3.081,3.08-3.081
			c1.702,0,3.08,1.379,3.08,3.081C2.984,56.712,1.606,58.092-0.095,58.092z M13.059,112.548c-1.7,0-3.08-1.379-3.08-3.079
			c0-1.701,1.38-3.081,3.08-3.081c1.701,0,3.081,1.38,3.081,3.081C16.14,111.169,14.76,112.548,13.059,112.548z M13.059,91.049
			c-1.7,0-3.08-1.379-3.08-3.08s1.38-3.08,3.08-3.08c1.701,0,3.081,1.379,3.081,3.08S14.76,91.049,13.059,91.049z M13.059,69.138
			c-1.7,0-3.08-1.379-3.08-3.08c0-1.701,1.38-3.08,3.08-3.08c1.701,0,3.081,1.379,3.081,3.08
			C16.14,67.759,14.76,69.138,13.059,69.138z M13.059,47.286c-1.7,0-3.08-1.377-3.08-3.079c0-1.703,1.38-3.082,3.08-3.082
			c1.701,0,3.081,1.379,3.081,3.082C16.14,45.907,14.76,47.286,13.059,47.286z"/>
	</g>
</g>
<g>
	<g opacity="0.4">
		<path fill="#FFFFFF" d="M120.64,37.984c0-11.298-42.036-9.972-42.036,0c0,15.155-3.028,58.35-3.028,58.35L91.177,120
			c0,0,28.257,0,30.753,0s2.495-3.209,2.495-3.209S120.64,52.96,120.64,37.984z M86.271,86.491c-1.771,0-2.451-1.436-2.451-3.209
			c0-1.772,0.68-3.209,2.451-3.209c1.773,0,2.453,1.437,2.453,3.209C88.725,85.056,88.045,86.491,86.271,86.491z M87.028,64.688
			c-1.771,0-2.451-1.437-2.451-3.209c0-1.772,0.68-3.21,2.451-3.21c1.774,0,2.453,1.438,2.453,3.21
			C89.481,63.25,88.803,64.688,87.028,64.688z M87.785,44.984c-1.771,0-2.451-1.437-2.451-3.208c0-1.773,0.68-3.21,2.451-3.21
			c1.774,0,2.454,1.437,2.454,3.21C90.239,43.547,89.56,44.984,87.785,44.984z M99.331,47.637c1.771,0,2.449,1.437,2.449,3.209
			c0,1.773-0.678,3.209-2.449,3.209c-1.773,0-2.452-1.436-2.452-3.209C96.879,49.073,97.558,47.637,99.331,47.637z M99.331,68.801
			c1.771,0,2.449,1.436,2.449,3.209c0,1.773-0.678,3.209-2.449,3.209c-1.773,0-2.452-1.436-2.452-3.209
			C96.879,70.237,97.558,68.801,99.331,68.801z M99.331,98.639c-1.773,0-3.209-2.192-3.209-3.966c0-1.772,1.436-3.966,3.209-3.966
			c1.771,0,3.207,2.193,3.207,3.966C102.538,96.446,101.104,98.639,99.331,98.639z M111.157,38.566c1.773,0,2.452,1.437,2.452,3.21
			c0,1.771-0.679,3.208-2.452,3.208c-1.772,0-2.45-1.437-2.45-3.208C108.707,40.003,109.385,38.566,111.157,38.566z M111.914,58.269
			c1.774,0,2.452,1.438,2.452,3.21c0,1.772-0.678,3.209-2.452,3.209c-1.772,0-2.449-1.437-2.449-3.209
			C109.465,59.706,110.142,58.269,111.914,58.269z M115.123,83.282c0,1.773-0.678,3.209-2.452,3.209
			c-1.771,0-2.449-1.436-2.449-3.209c0-1.772,0.678-3.209,2.449-3.209C114.444,80.073,115.123,81.51,115.123,83.282z
			 M113.429,111.662c-1.772,0-3.207-2.192-3.207-3.966c0-1.772,1.436-3.966,3.207-3.966c1.773,0,3.209,2.193,3.209,3.966
			C116.638,109.47,115.202,111.662,113.429,111.662z"/>
	</g>
	<g>
		<path fill="none" stroke="#FFFFFF" stroke-width="2" stroke-miterlimit="10" d="M120.64,37.984c0-11.298-42.036-9.972-42.036,0
			c0,15.155-3.028,58.35-3.028,58.35L91.177,120c0,0,28.257,0,30.753,0s2.495-3.209,2.495-3.209S120.64,52.96,120.64,37.984z
			 M86.271,86.491c-1.771,0-2.451-1.436-2.451-3.209c0-1.772,0.68-3.209,2.451-3.209c1.773,0,2.453,1.437,2.453,3.209
			C88.725,85.056,88.045,86.491,86.271,86.491z M87.028,64.688c-1.771,0-2.451-1.437-2.451-3.209c0-1.772,0.68-3.21,2.451-3.21
			c1.774,0,2.453,1.438,2.453,3.21C89.481,63.25,88.803,64.688,87.028,64.688z M87.785,44.984c-1.771,0-2.451-1.437-2.451-3.208
			c0-1.773,0.68-3.21,2.451-3.21c1.774,0,2.454,1.437,2.454,3.21C90.239,43.547,89.56,44.984,87.785,44.984z M99.331,47.637
			c1.771,0,2.449,1.437,2.449,3.209c0,1.773-0.678,3.209-2.449,3.209c-1.773,0-2.452-1.436-2.452-3.209
			C96.879,49.073,97.558,47.637,99.331,47.637z M99.331,68.801c1.771,0,2.449,1.436,2.449,3.209c0,1.773-0.678,3.209-2.449,3.209
			c-1.773,0-2.452-1.436-2.452-3.209C96.879,70.237,97.558,68.801,99.331,68.801z M99.331,98.639c-1.773,0-3.209-2.192-3.209-3.966
			c0-1.772,1.436-3.966,3.209-3.966c1.771,0,3.207,2.193,3.207,3.966C102.538,96.446,101.104,98.639,99.331,98.639z M111.157,38.566
			c1.773,0,2.452,1.437,2.452,3.21c0,1.771-0.679,3.208-2.452,3.208c-1.772,0-2.45-1.437-2.45-3.208
			C108.707,40.003,109.385,38.566,111.157,38.566z M111.914,58.269c1.774,0,2.452,1.438,2.452,3.21c0,1.772-0.678,3.209-2.452,3.209
			c-1.772,0-2.449-1.437-2.449-3.209C109.465,59.706,110.142,58.269,111.914,58.269z M115.123,83.282
			c0,1.773-0.678,3.209-2.452,3.209c-1.771,0-2.449-1.436-2.449-3.209c0-1.772,0.678-3.209,2.449-3.209
			C114.444,80.073,115.123,81.51,115.123,83.282z M113.429,111.662c-1.772,0-3.207-2.192-3.207-3.966
			c0-1.772,1.436-3.966,3.207-3.966c1.773,0,3.209,2.193,3.209,3.966C116.638,109.47,115.202,111.662,113.429,111.662z"/>
	</g>
</g>
</svg>
