<?xml version="1.0" encoding="utf-8"?>
<!-- Generator: Adobe Illustrator 16.0.0, SVG Export Plug-In . SVG Version: 6.00 Build 0)  -->
<!DOCTYPE svg PUBLIC "-//W3C//DTD SVG 1.1//EN" "http://www.w3.org/Graphics/SVG/1.1/DTD/svg11.dtd">
<svg version="1.1" id="Layer_1" xmlns="http://www.w3.org/2000/svg" xmlns:xlink="http://www.w3.org/1999/xlink" x="0px" y="0px"
	 width="90px" height="126px" viewBox="0 0 90 126" enable-background="new 0 0 90 126" xml:space="preserve">
<rect x="27.875" y="3.71" width="34.209" height="117.624"/>
<g>
	<rect x="62.084" y="12.167" width="8.771" height="4.615"/>
	<circle cx="77.825" cy="15.196" r="8.989"/>
</g>
<g>
	<rect x="62.084" y="36.184" width="8.771" height="4.616"/>
	<circle cx="77.825" cy="39.212" r="8.989"/>
</g>
<g>
	<rect x="62.084" y="59.761" width="8.771" height="4.616"/>
	<circle cx="77.825" cy="62.79" r="8.989"/>
</g>
<g>
	<rect x="62.084" y="83.777" width="8.771" height="4.615"/>
	<path d="M77.825,77.818c-4.965,0-8.989,4.024-8.989,8.988c0,4.965,4.024,8.989,8.989,8.989c4.964,0,8.989-4.024,8.989-8.989
		C86.814,81.843,82.789,77.818,77.825,77.818z M77.824,92.161c-2.957,0-5.354-2.397-5.354-5.354s2.396-5.354,5.354-5.354
		s5.354,2.396,5.354,5.354S80.781,92.161,77.824,92.161z"/>
</g>
<g>
	<rect x="62.084" y="107.432" width="8.771" height="4.614"/>
	<path d="M77.825,101.471c-4.965,0-8.989,4.023-8.989,8.988s4.024,8.989,8.989,8.989c4.964,0,8.989-4.024,8.989-8.989
		S82.789,101.471,77.825,101.471z M77.824,115.813c-2.957,0-5.354-2.396-5.354-5.354s2.396-5.354,5.354-5.354
		s5.354,2.396,5.354,5.354S80.781,115.813,77.824,115.813z"/>
</g>
<g>
	<rect x="19.35" y="12.167" width="8.77" height="4.615"/>
	<circle cx="12.38" cy="15.196" r="8.989"/>
</g>
<g>
	<rect x="19.35" y="36.184" width="8.77" height="4.616"/>
	<circle cx="12.38" cy="39.212" r="8.989"/>
</g>
<g>
	<rect x="19.35" y="59.761" width="8.77" height="4.616"/>
	<circle cx="12.38" cy="62.79" r="8.989"/>
</g>
<g>
	<rect x="19.35" y="83.777" width="8.77" height="4.615"/>
	<path d="M12.38,77.818c-4.964,0-8.989,4.024-8.989,8.988c0,4.965,4.024,8.989,8.989,8.989c4.965,0,8.989-4.024,8.989-8.989
		C21.369,81.843,17.345,77.818,12.38,77.818z M12.38,92.161c-2.957,0-5.354-2.397-5.354-5.354s2.397-5.354,5.354-5.354
		s5.354,2.396,5.354,5.354S15.337,92.161,12.38,92.161z"/>
</g>
<g>
	<rect x="19.35" y="107.432" width="8.77" height="4.614"/>
	<path d="M12.38,101.471c-4.964,0-8.989,4.023-8.989,8.988s4.024,8.989,8.989,8.989c4.965,0,8.989-4.024,8.989-8.989
		S17.345,101.471,12.38,101.471z M12.38,115.813c-2.957,0-5.354-2.396-5.354-5.354s2.397-5.354,5.354-5.354s5.354,2.396,5.354,5.354
		S15.337,115.813,12.38,115.813z"/>
</g>
</svg>
