<?xml version="1.0" encoding="utf-8"?>
<!-- Generator: Adobe Illustrator 16.0.0, SVG Export Plug-In . SVG Version: 6.00 Build 0)  -->
<!DOCTYPE svg PUBLIC "-//W3C//DTD SVG 1.1//EN" "http://www.w3.org/Graphics/SVG/1.1/DTD/svg11.dtd">
<svg version="1.1" id="Layer_1" xmlns="http://www.w3.org/2000/svg" xmlns:xlink="http://www.w3.org/1999/xlink" x="0px" y="0px"
	 width="90px" height="126px" viewBox="0 0 90 126" enable-background="new 0 0 90 126" xml:space="preserve">
<rect x="28.036" y="3.71" width="34.208" height="117.624"/>
<g>
	<rect x="62.244" y="12.167" width="8.771" height="4.615"/>
	<circle cx="77.984" cy="15.196" r="8.989"/>
</g>
<g>
	<rect x="62.244" y="36.184" width="8.771" height="4.616"/>
	<path d="M77.984,30.223c-4.964,0-8.988,4.024-8.988,8.989s4.024,8.989,8.988,8.989c4.965,0,8.99-4.025,8.99-8.989
		S82.949,30.223,77.984,30.223z M77.984,44.566c-2.957,0-5.354-2.397-5.354-5.354s2.397-5.354,5.354-5.354s5.354,2.397,5.354,5.354
		S80.941,44.566,77.984,44.566z"/>
</g>
<g>
	<rect x="62.244" y="59.761" width="8.771" height="4.616"/>
	<path d="M77.984,53.801c-4.964,0-8.988,4.025-8.988,8.989c0,4.964,4.024,8.989,8.988,8.989c4.965,0,8.99-4.025,8.99-8.989
		C86.975,57.826,82.949,53.801,77.984,53.801z M77.984,68.145c-2.957,0-5.354-2.397-5.354-5.354s2.397-5.354,5.354-5.354
		s5.354,2.397,5.354,5.354S80.941,68.145,77.984,68.145z"/>
</g>
<g>
	<rect x="62.244" y="83.777" width="8.771" height="4.615"/>
	<path d="M77.984,77.818c-4.964,0-8.988,4.024-8.988,8.988c0,4.965,4.024,8.989,8.988,8.989c4.965,0,8.99-4.024,8.99-8.989
		C86.975,81.843,82.949,77.818,77.984,77.818z M77.984,92.161c-2.957,0-5.354-2.397-5.354-5.354s2.397-5.354,5.354-5.354
		s5.354,2.396,5.354,5.354S80.941,92.161,77.984,92.161z"/>
</g>
<g>
	<rect x="62.244" y="107.432" width="8.771" height="4.614"/>
	<path d="M77.984,101.471c-4.964,0-8.988,4.023-8.988,8.988s4.024,8.989,8.988,8.989c4.965,0,8.99-4.024,8.99-8.989
		S82.949,101.471,77.984,101.471z M77.984,115.813c-2.957,0-5.354-2.396-5.354-5.354s2.397-5.354,5.354-5.354
		s5.354,2.396,5.354,5.354S80.941,115.813,77.984,115.813z"/>
</g>
<g>
	<rect x="19.51" y="12.167" width="8.771" height="4.615"/>
	<circle cx="12.541" cy="15.196" r="8.989"/>
</g>
<g>
	<rect x="19.51" y="36.184" width="8.771" height="4.616"/>
	<path d="M12.541,30.223c-4.964,0-8.989,4.024-8.989,8.989s4.025,8.989,8.989,8.989s8.989-4.025,8.989-8.989
		S17.505,30.223,12.541,30.223z M12.541,44.566c-2.957,0-5.354-2.397-5.354-5.354s2.397-5.354,5.354-5.354s5.354,2.397,5.354,5.354
		S15.498,44.566,12.541,44.566z"/>
</g>
<g>
	<rect x="19.51" y="59.761" width="8.771" height="4.616"/>
	<path d="M12.541,53.801c-4.964,0-8.989,4.025-8.989,8.989c0,4.964,4.025,8.989,8.989,8.989s8.989-4.025,8.989-8.989
		C21.53,57.826,17.505,53.801,12.541,53.801z M12.541,68.145c-2.957,0-5.354-2.397-5.354-5.354s2.397-5.354,5.354-5.354
		s5.354,2.397,5.354,5.354S15.498,68.145,12.541,68.145z"/>
</g>
<g>
	<rect x="19.51" y="83.777" width="8.771" height="4.615"/>
	<path d="M12.541,77.818c-4.964,0-8.989,4.024-8.989,8.988c0,4.965,4.025,8.989,8.989,8.989s8.989-4.024,8.989-8.989
		C21.53,81.843,17.505,77.818,12.541,77.818z M12.541,92.161c-2.957,0-5.354-2.397-5.354-5.354s2.397-5.354,5.354-5.354
		s5.354,2.396,5.354,5.354S15.498,92.161,12.541,92.161z"/>
</g>
<g>
	<rect x="19.51" y="107.432" width="8.771" height="4.614"/>
	<path d="M12.541,101.471c-4.964,0-8.989,4.023-8.989,8.988s4.025,8.989,8.989,8.989s8.989-4.024,8.989-8.989
		S17.505,101.471,12.541,101.471z M12.541,115.813c-2.957,0-5.354-2.396-5.354-5.354s2.397-5.354,5.354-5.354
		s5.354,2.396,5.354,5.354S15.498,115.813,12.541,115.813z"/>
</g>
</svg>
